<?xml version="1.0" encoding="utf-8"?>
<!-- Generator: Adobe Illustrator 24.0.1, SVG Export Plug-In . SVG Version: 6.00 Build 0)  -->
<svg version="1.1" id="Camada_1" xmlns="http://www.w3.org/2000/svg" xmlns:xlink="http://www.w3.org/1999/xlink" x="0px" y="0px"
	 viewBox="0 0 841.89 595.28" style="enable-background:new 0 0 841.89 595.28;" xml:space="preserve">
<style type="text/css">
	.st0{fill:#FDFEFE;}
	.st1{fill:#060404;}
	.st2{fill:#FE0000;}
	.st3{fill:#FBC89F;}
	.st4{fill:#FAFAFA;}
	.st5{fill:#F9C79F;}
	.st6{fill:#E8E9E9;}
	.st7{fill:#F90000;}
	.st8{fill:#EBECEC;}
	.st9{fill:#9DD000;}
	.st10{fill:#B8E038;}
	.st11{fill:#F6C49D;}
	.st12{fill:#242222;}
	.st13{fill:#FE0605;}
	.st14{fill:#0D0B0A;}
	.st15{fill:#090909;}
</style>
<g>
	<g>
		<path class="st0" d="M728.64,559.76c-177.19,0-354.37,0-531.6,0c0-162.77,0-325.55,0-488.4c177.17,0,354.39,0,531.6,0
			C728.64,234.13,728.64,396.94,728.64,559.76z M719.41,222.21c-0.92-0.67-1.63-0.35-2.3-0.25c-3.72,0.54-7.43,1.07-11.14,1.68
			c-4.1,0.68-8.18,1.46-12.27,2.15c-2.66,0.45-2.68,0.3-3.84-2.01c-1.88-3.72-3.03-7.72-4.61-11.55
			c-10.63-25.64-25.81-48.27-45.32-67.97c-17.98-18.17-38.67-32.64-61.46-44.12C543,82.25,505.19,74.22,465.64,73.83
			c-19.1-0.19-37.93,2.23-56.55,6.48c-36.71,8.38-69.97,23.99-99.32,47.63c-26.59,21.41-47.29,47.47-61.17,78.78
			c-7.09,15.99-12.1,32.61-14.76,49.91c-1.32,8.55-1.48,17.18-1.87,25.81c-0.92,20.28,2.27,40.03,7.98,59.35
			c2.89,9.76,6.47,19.37,11.01,28.56c4.28,8.67,8.44,17.4,14.44,25.08c1.05,1.35,0.96,1.7-0.65,2.5c-3.14,1.57-6.32,3.06-9.47,4.6
			c-0.89,0.43-1.85,0.58-2.8,0.48c-3.29-0.35-6.55-0.02-9.81,0.37c-6.03,0.72-11.66,2.63-16.74,6.02c-2.67,1.78-4.8,4.05-5.74,7.15
			c-0.6,1.96-1.79,3.08-3.56,3.88c-3.56,1.61-7.08,3.32-10.61,4.99c-1.08,0.51-2.17,1-3.24,1.55c-2.12,1.08-2.24,1.48-1.04,3.47
			c0.53,0.89,1.12,1.75,1.69,2.62c13.31,19.9,29.64,37.05,47.91,52.4c27.38,23.01,58.25,39.95,91.72,52.29
			c35.85,13.21,72.96,19.86,111.09,20.88c23.8,0.64,47.43-1.26,70.87-5.45c28.35-5.07,55.62-13.57,81.8-25.57
			c32.65-14.96,61.81-34.96,87.12-60.5c11.3-11.4,21.11-24,30.31-37.09c1.09-1.56,1.04-1.88-0.66-2.67
			c-4.64-2.17-9.09-4.65-13.2-7.74c-1.92-1.44-4.1-2.46-6.36-3.3c-2.47-0.92-4.92-1.88-7.42-2.68c-1.86-0.6-3.18-1.61-4.05-3.42
			c-1.3-2.72-3.15-3.48-5.89-2.28c-1.98,0.86-3.66,0.59-5.49-0.28c-4.47-2.13-8.97-4.18-13.46-6.26c-0.87-0.4-1.74-0.8-2.58-1.26
			c-1.32-0.73-1.41-0.98-0.35-2.13c2.52-2.73,4.31-5.94,6.13-9.13c1.1-1.94,2.22-3.88,3.31-5.83c7.92-14.21,14.38-29.03,18.64-44.77
			c2.68-9.88,4.92-19.84,5.69-30.08c0.39-5.26,0.88-10.52,1.21-15.78c0.27-4.29,0.84-8.61-0.32-12.88c-0.1-0.37-0.05-0.8-0.02-1.19
			c0.11-1.54,0.45-1.83,1.93-1.66c0.39,0.05,0.78,0.15,1.17,0.25c3.98,0.96,7.77,2.41,11.35,4.4c2.66,1.48,5.43,2.69,8.32,3.63
			c0.45,0.15,0.9,0.34,1.36,0.44c0.77,0.16,1.05-0.28,0.88-0.96c-0.12-0.45-0.37-0.88-0.65-1.26c-1.59-2.12-2.86-4.43-4.19-6.7
			c-2.02-3.45-4.17-6.82-6.53-10.04c-3.57-4.87-7.64-9.24-12.66-12.66c-2.38-1.62-3.72-3.89-4.36-6.64
			c-0.35-1.48-0.68-2.96-1.1-4.41c-0.69-2.33-0.57-2.93,1.32-4.29c4.09-2.94,8.18-5.87,12.3-8.76
			C712.09,227.17,715.67,224.77,719.41,222.21z"/>
		<path class="st1" d="M719.41,222.21c-3.74,2.56-7.32,4.96-10.85,7.43c-4.12,2.89-8.22,5.82-12.3,8.76c-1.88,1.35-2,1.96-1.32,4.29
			c0.43,1.45,0.75,2.94,1.1,4.41c0.65,2.75,1.98,5.01,4.36,6.64c5.01,3.42,9.09,7.79,12.66,12.66c2.36,3.23,4.51,6.59,6.53,10.04
			c1.33,2.27,2.61,4.58,4.19,6.7c0.28,0.37,0.53,0.81,0.65,1.26c0.18,0.68-0.1,1.12-0.88,0.96c-0.47-0.09-0.91-0.29-1.36-0.44
			c-2.89-0.94-5.66-2.15-8.32-3.63c-3.58-1.99-7.37-3.44-11.35-4.4c-0.39-0.09-0.78-0.2-1.17-0.25c-1.48-0.17-1.82,0.12-1.93,1.66
			c-0.03,0.4-0.08,0.82,0.02,1.19c1.16,4.27,0.58,8.58,0.32,12.88c-0.33,5.26-0.82,10.52-1.21,15.78
			c-0.77,10.24-3.01,20.2-5.69,30.08c-4.26,15.74-10.72,30.56-18.64,44.77c-1.09,1.95-2.21,3.89-3.31,5.83
			c-1.82,3.2-3.61,6.4-6.13,9.13c-1.06,1.15-0.97,1.39,0.35,2.13c0.84,0.46,1.71,0.86,2.58,1.26c4.49,2.09,8.99,4.14,13.46,6.26
			c1.82,0.87,3.51,1.14,5.49,0.28c2.75-1.2,4.6-0.44,5.89,2.28c0.87,1.81,2.18,2.82,4.05,3.42c2.5,0.81,4.96,1.76,7.42,2.68
			c2.25,0.84,4.44,1.86,6.36,3.3c4.11,3.09,8.55,5.57,13.2,7.74c1.71,0.8,1.76,1.12,0.66,2.67c-9.21,13.1-19.02,25.7-30.31,37.09
			c-25.32,25.54-54.47,45.54-87.12,60.5c-26.18,12-53.45,20.5-81.8,25.57c-23.44,4.19-47.07,6.09-70.87,5.45
			c-38.14-1.02-75.24-7.67-111.09-20.88c-33.48-12.34-64.34-29.28-91.72-52.29c-18.27-15.35-34.6-32.5-47.91-52.4
			c-0.58-0.86-1.16-1.73-1.69-2.62c-1.19-1.99-1.07-2.39,1.04-3.47c1.06-0.54,2.16-1.04,3.24-1.55c3.53-1.67,7.05-3.38,10.61-4.99
			c1.77-0.8,2.96-1.92,3.56-3.88c0.94-3.09,3.07-5.37,5.74-7.15c5.09-3.39,10.71-5.3,16.74-6.02c3.25-0.39,6.52-0.72,9.81-0.37
			c0.95,0.1,1.91-0.05,2.8-0.48c3.16-1.54,6.33-3.03,9.47-4.6c1.61-0.8,1.7-1.15,0.65-2.5c-6-7.68-10.16-16.41-14.44-25.08
			c-4.54-9.19-8.13-18.8-11.01-28.56c-5.71-19.32-8.91-39.07-7.98-59.35c0.39-8.62,0.56-17.25,1.87-25.81
			c2.66-17.31,7.68-33.93,14.76-49.91c13.88-31.31,34.58-57.37,61.17-78.78c29.35-23.64,62.61-39.25,99.32-47.63
			c18.61-4.25,37.45-6.66,56.55-6.48c39.54,0.39,77.35,8.42,112.83,26.3c22.79,11.49,43.48,25.96,61.46,44.12
			c19.51,19.7,34.68,42.34,45.32,67.97c1.59,3.83,2.73,7.83,4.61,11.55c1.17,2.31,1.18,2.46,3.84,2.01
			c4.09-0.69,8.17-1.47,12.27-2.15c3.7-0.61,7.42-1.14,11.14-1.68C717.78,221.87,718.49,221.54,719.41,222.21z M574.28,428.85
			c-0.2-0.17-0.41-0.33-0.61-0.5c0.28-0.15,0.55-0.33,0.84-0.45c1.09-0.47,1.38-1.33,1-2.35c-0.43-1.15-1.43-0.83-2.26-0.6
			c-5.97,1.67-11.58,4.11-16.61,7.78c-0.45,0.33-0.87,0.72-1.21,1.15c-0.82,1.06-0.74,2.55,0.12,3.79c0.73,1.06,1.62,1.45,2.88,0.86
			c1.33-0.63,2.33-0.02,3.08,1.06c0.59,0.85,1.14,1.74,1.65,2.64c1.2,2.09,1.19,2.09,3.24,0.93c1.69-0.96,2.48-0.76,3.55,0.94
			c0.17,0.27,0.29,0.57,0.43,0.85c0.43,0.86,0.95,0.95,1.66,0.28c0.88-0.82,1.8-1.58,2.71-2.36c0.85-0.74,1.57-0.85,2.44,0.11
			c1.43,1.57,1.86,1.53,3.4,0.02c0.34-0.33,0.62-0.73,0.93-1.09c2.31-2.78,2.86-2.77,4.88,0.12c0.75,1.06,1.21,1.12,1.95,0.03
			c0.71-1.05,1.2-2.26,1.89-3.33c1.01-1.56,1.67-1.62,3.07-0.47c0.36,0.3,0.55,0.81,1.1,0.87c0.44-0.16,0.45-0.61,0.62-0.94
			c1.12-2.1,2.17-2.25,3.82-0.48c0.49,0.52,0.87,1.14,1.32,1.71c0.34,0.42,0.65,1.04,1.32,0.75c0.63-0.27,0.49-0.94,0.46-1.47
			c-0.04-0.88-0.14-1.75-0.23-2.63c-0.06-0.64-0.19-1.27-0.18-1.91c0.04-1.86,0.93-2.59,2.76-2.28c0.6,0.1,1.19,0.54,1.77-0.05
			c-0.71-2.73-1.16-3.48-3.13-4.53c-3.9-2.06-7.95-3.74-12.31-4.56c-2.54-0.48-5.1-0.43-7.6,0.27c-1.74,0.49-2.11,1.4-1.31,3.05
			c0.14,0.28,0.39,0.5,0.58,0.75c-0.17,0.33-0.34,0.66-0.52,0.99c-0.45,0.56-0.34,1.15-0.16,1.77c0.28,0.94,0.25,1.85-0.36,2.68
			c-0.78,0.12-0.87-0.43-1.04-0.98c-0.86-2.69-1.13-5.46-1.25-8.27c-0.52-12.78-1.27-25.55-2.09-38.31
			c-0.06-0.88-0.17-1.75-0.27-2.62c-0.05-0.42-0.22-0.8-0.73-0.76c-0.47,0.03-0.71,0.38-0.69,0.81c0.06,1.28,0.22,2.55,0.26,3.82
			c0.49,14.62,1.87,29.2,2.52,43.81c0.05,1.05,0.12,2.08,0.96,2.86c-0.9,0.88-1.56,0.35-2.02-0.46c-0.35-0.61-0.65-1.32-0.71-2.01
			C576.11,428.81,575.39,428.59,574.28,428.85z M641.77,311.74c-0.36,0.47-0.93,0.27-1.39,0.41c-0.63-0.06-1.28-0.07-1.9-0.18
			c-10.8-1.88-21.69-2.95-32.63-3.57c-17.24-0.97-34.5-1.39-51.76-1.9c-17.2-0.52-34.37,0.05-51.52,1.43
			c-5.02,0.41-10.01,1.1-14.92,2.26c-2.75,0.65-3.76,1.71-4.18,4.52c-0.32,2.13-0.58,4.28-0.79,6.42c-0.47,4.69-1.26,9.35-1.1,14.09
			c0.05,1.43-0.2,3.02,0.48,4.25c1.12,2.04,1.06,4.12,0.93,6.29c-0.29,4.82,0.22,9.57,1.31,14.27c1.38,5.96,4.03,11.43,6.57,16.94
			c1.15,2.5,2.75,4.66,4.63,6.66c5.2,5.5,11.66,8.75,18.76,11.1c12.12,4.01,24.54,4.88,37.17,4.06c4.95-0.32,9.89-0.57,14.84,0.15
			c1.74,0.26,3.52,0.25,5.25-0.14c1.57-0.35,2-1.04,1.98-2.79c-0.03-2.15-0.45-3-2.02-3.27c-4.29-0.75-7.11-3.39-9.29-6.93
			c-3.38-5.5-5.09-11.52-5.55-17.91c-0.2-2.78,0.95-3.97,3.74-4.13c0.4-0.02,0.8,0.03,1.2,0.04c6.87,0.17,13.74,0.35,20.62,0.49
			c3.52,0.07,7.04,0.05,10.55,0.12c1.83,0.04,2.06,0.35,1.97,2.17c-0.02,0.4-0.07,0.8-0.13,1.19c-0.97,6.67-3.49,12.75-7.08,18.43
			c-0.47,0.74-0.92,1.54-1.73,1.96c-1.86,0.98-3.34,2.46-4.99,3.72c-1.87,1.42-2.25,2.74-1.58,5.05c0.52,1.8,1.12,2.35,2.93,2.02
			c3.58-0.64,7.17-0.4,10.76-0.44c6.79-0.09,13.59,0.05,20.38-0.31c8.07-0.43,16.09-1.34,24.11-2.19
			c8.77-0.93,15.71-5.05,20.58-12.49c1.72-2.62,2.97-5.47,3.95-8.44c2.93-8.9,5.33-17.91,5.66-27.36c0.03-0.8,0-1.71,1.15-2.28
			c0,1.4,0.03,2.59-0.01,3.78c-0.03,1.05,0.13,2.07,0.41,3.08c0.63,2.21,1.13,2.47,3.24,1.66c2.19-0.84,4.16-2.04,5.82-3.71
			c7.87-7.9,10.22-17.42,8.26-28.2c-0.33-1.82-1.44-2.86-3.2-3.07c-3.8-0.46-7.33,0.08-10.17,3c-0.81,0.83-1.62,1.73-2.87,1.99
			c-0.5-1.16-0.4-2.29-0.31-3.4c0.09-1.14,0-2.23-0.63-3.22c0.55-1.79,0.57-3.62,0.38-5.46c-0.12-1.19-0.36-2.37-0.48-3.56
			c-0.79-8.19-1.59-16.39-1.99-24.61c-0.1-1.96-0.86-3.08-2.73-3.66c-4.04-1.26-8.08-2.49-12.19-3.47
			c-18.72-4.44-37.77-6.42-56.93-7.62c-12.53-0.78-25.07-1.07-37.62-0.91c-10.31,0.13-20.61,0.41-30.89,1.24
			c-7.89,0.63-15.74,1.59-23.57,2.64c-4.51,0.61-9.03,1.17-13.45,2.3c-1.93,0.49-3.02,1.45-3.18,3.58
			c-0.4,5.58-1.06,11.14-1.2,16.73c-0.05,2.08-0.05,4.16,0.08,6.23c0.15,2.37,0.55,2.76,2.89,2.89c2.07,0.12,4.15,0.12,6.23,0.07
			c6.87-0.15,13.72-0.78,20.58-1.21c10.3-0.65,20.61-0.63,30.92-0.51c7.43,0.08,14.87,0.15,22.28,0.68
			c7.49,0.54,14.98,1.14,22.46,1.78c6.21,0.53,12.42,1.03,18.61,1.78c7.37,0.89,14.72,2,22.06,3.1
			C635,309.92,638.51,310.31,641.77,311.74z M436.36,192.92c1.08-1.03,2.25-1.34,3.39-1.58c3.13-0.66,6.17-1.64,9.24-2.52
			c8.85-2.54,17.9-4.04,26.98-5.46c11.93-1.87,23.9-3.32,35.95-3.99c9.98-0.56,19.96-0.74,29.96-0.25
			c9.75,0.48,19.44,1.37,29.07,2.92c17.92,2.88,34.96,8.23,50.5,17.84c1.3,0.8,2.69,1.42,4.16,1.82c1.62,0.44,2.11-0.08,1.57-1.7
			c-1.01-3.04-2.39-5.92-3.92-8.73c-3.78-6.9-8.33-13.26-13.41-19.25c-3.15-3.72-6.45-7.32-9.67-10.98
			c-0.85-0.96-1.66-1.96-2.21-3.12c-0.37-0.79-0.05-1.22,0.84-1.13c0.47,0.05,0.93,0.22,1.39,0.35c3.16,0.85,6.28,1.88,9.32,3.08
			c7.99,3.16,15.36,7.49,22.64,11.99c7.75,4.79,14.45,10.81,20.2,17.88c4.45,5.48,8.25,11.39,11.45,17.68
			c0.68,1.33,1.32,2.71,2.7,3.57c0.42-0.78,0.23-1.39-0.17-1.91c-1.57-2.06-2.44-4.48-3.62-6.75
			c-14.44-27.94-34.62-50.99-59.93-69.47c-38.8-28.33-82.58-42.29-130.38-44.07c-16.34-0.61-32.57,0.74-48.67,3.66
			c-24.07,4.38-47.03,11.99-68.58,23.64c-28.86,15.59-53.41,36.2-72.38,63.11c-26,36.88-37.5,77.78-33.6,122.87
			c1.13,13.03,3.63,25.79,7.67,38.21c12.16,37.36,33.72,68.29,64.34,92.86c25.5,20.46,54.17,34.59,85.89,42.54
			c14.37,3.6,28.96,5.85,43.73,6.87c10.14,0.7,20.29,0.53,30.43-0.03c3.06-0.17,6.18-0.18,9.21-1.06c-0.12-0.89-0.79-1-1.38-1.19
			c-1.68-0.52-3.37-0.99-5.04-1.56c-10.22-3.45-19.8-8.13-28.39-14.72c-2.18-1.67-4.14-3.54-5.3-6.08
			c-1.79-3.9-2.71-7.99-2.93-12.27c-0.25-4.91,1.21-9.44,2.72-14.01c2.18-6.63,6.18-11.84,11.61-16.08
			c4.73-3.7,9.71-7.04,14.91-10.03c5.75-3.31,11.91-5.34,18.55-6.02c3.85-0.4,7.67-0.02,11.5-0.15c1.78-0.06,3.56-0.09,5.73-0.14
			c-0.87-1.1-1.74-1.26-2.53-1.55c-11.92-4.41-20.41-12.25-24.63-24.45c-0.91-2.64-2.06-5.2-3.25-7.73
			c-1.07-2.26-1.93-4.53-2.11-7.06c-0.1-1.42-0.46-2.83-0.76-4.24c-0.44-2.05-1.69-3.42-3.7-4.02c-1.22-0.37-2.48-0.62-3.72-0.92
			c-4.2-1.02-7.8-3.04-10.03-6.84c-2.1-3.58-4.03-7.28-4.91-11.4c-0.6-2.83-0.84-5.66-0.41-8.56c0.54-3.69,1.68-7.14,3.36-10.44
			c0.35-0.68,1.01-1.38,0.31-2.18c-0.56-0.65-1.34-0.41-2.03-0.26c-1.72,0.37-3.43,0.77-5.13,1.2c-7.44,1.87-14.25,5.16-20.8,9.06
			c-2.06,1.23-4.14,2.42-6.22,3.61c-0.26,0.15-0.57,0.34-0.86,0.05c-0.26-0.26-0.24-0.6-0.07-0.88c1.12-1.81,1.32-3.92,1.95-5.89
			c1.53-4.81,3.32-9.5,5.76-13.93c4.9-8.89,11.71-16.13,19.48-22.55c3.7-3.06,7.5-6,10.81-9.48c1.54-1.62,1.26-2.55-0.91-3.11
			c-3.55-0.91-7.16-0.83-10.71-0.17c-17.03,3.13-33.5,8.19-49.47,14.86c-5.68,2.37-11.24,5.01-16.86,7.5
			c-0.97,0.43-1.93,1.08-3.09,0.73c-0.05-0.66,0.35-0.98,0.66-1.33c3.93-4.42,7.77-8.93,11.82-13.24
			c12.61-13.39,26.72-25.01,42.06-35.13c24.18-15.96,50.64-24.84,79.71-25.58c1.68-0.04,3.36-0.12,5.02-0.29
			c1.26-0.13,1.46-0.77,0.61-1.72c-0.31-0.36-0.69-0.66-1.06-0.97c-2.23-1.86-4.72-3.28-7.32-4.53c-6.51-3.12-13.27-5.55-20.27-7.24
			c-17.45-4.2-35.1-6.9-53.08-7.17C438.9,193.66,437.68,193.7,436.36,192.92z M503.35,405.32c-5.67-0.19-11.16,0.61-16.31,3.11
			c-7.06,3.42-13.81,7.37-20.32,11.73c-4.58,3.08-7.89,7.18-9.8,12.38c-0.91,2.48-1.67,5.01-2.09,7.61
			c-1.1,6.82,0.16,13.06,4.88,18.33c3.34,3.74,7.25,6.72,11.88,8.73c6.08,2.64,12.13,5.34,18.21,7.97
			c3.67,1.59,7.44,2.91,11.38,3.65c4.87,0.9,9.73,1.85,14.62,2.57c3.25,0.48,6.55,0.35,9.76-0.51c14.21-3.8,28.11-8.5,41.45-14.75
			c0.36-0.17,0.73-0.32,1.09-0.5c0.51-0.27,0.94-0.62,0.94-1.27c-0.01-0.78-0.56-1.09-1.18-1.33c-0.3-0.11-0.61-0.18-0.91-0.28
			c-1.98-0.68-4.03-1.25-6.08-1.24c-4.7,0.03-8.92-1.53-13.15-3.26c-1.09-0.44-1.64-1.1-1.96-2.19c-1.04-3.54-1.11-7.08-0.17-10.64
			c0.2-0.77,0.38-1.56,0.43-2.35c0.05-0.72-0.26-1.28-1.15-1.05c-2.64,0.67-5.29,1.32-7.33,3.3c-1.39,1.35-2.95,2.44-4.7,3.27
			c-3.46,1.65-6.98,3.16-10.57,4.49c-6.78,2.52-13.76,2.71-20.78,1.54c-4.55-0.76-7.62-3.5-9.02-7.96c-1.11-3.55-1.32-7.2-0.96-10.9
			c0.1-1.05,0.42-2.03,0.87-2.97c2.98-6.21,6.25-12.24,10.61-17.61c1.86-2.3,3.59-4.7,5.1-7.25c0.24-0.41,0.55-0.8,0.73-1.23
			c0.45-1.12,0.07-1.64-1.15-1.6C506.22,405.16,504.78,405.25,503.35,405.32z M458.69,526.29c-1.03,1.06-1.97,1.33-2.81,1.75
			c-4.67,2.31-9.09,5.01-13.17,8.25c-2.06,1.63-3.59,3.64-4.09,6.29c-0.37,1.93,0.3,3.48,1.96,4.51c1.25,0.78,2.63,1.11,4.1,1.17
			c3.5,0.15,6.81-0.74,10.11-1.72c7.67-2.27,14.86-5.78,22.3-8.66c0.15-0.06,0.3-0.12,0.44-0.2c0.84-0.51,1.76-1.1,1.27-2.23
			c-0.49-1.12-1.48-0.64-2.28-0.34c-1.94,0.73-3.86,1.51-5.8,2.26c-5.27,2.06-10.41,4.5-15.94,5.83c-2.18,0.53-4.38,0.89-6.63,0.28
			c-2.84-0.77-3.86-3.58-2.12-5.97c0.58-0.79,1.37-1.33,2.17-1.87c3.31-2.25,6.86-4.08,10.44-5.84c3.8-1.86,7.72-3.44,11.62-5.09
			c1.48-0.62,2.86-1.43,4.03-2.55c0.48-0.46,0.89-0.98,0.5-1.67c-0.34-0.62-0.93-0.5-1.49-0.42c-1.34,0.19-2.69,0.39-4.04,0.56
			c-5.07,0.63-10.14,1.39-15.28,1.14c-2.4-0.12-4.8-0.28-7.12-0.94c-3.27-0.93-4.63-3.3-3.8-6.6c1.22-4.82,4.17-8.37,8.25-11.06
			c2.51-1.66,5.17-1.91,7.99-0.8c4.65,1.84,8.13,4.9,10.39,9.42c1.55,3.09,2.61,3.25,5.37,1.22c0.32-0.24,0.63-0.49,0.93-0.75
			c0.96-0.86,1.16-1.88,0.55-3.02c-1.09-2.04-2.15-4.1-3.68-5.88c-5.13-5.94-12.9-7.73-19.73-4.21
			c-6.73,3.46-12.43,8.12-15.79,15.17c-0.22,0.47-0.35,1.11-1.18,1.07c-0.48-0.63-0.53-1.43-0.67-2.2
			c-0.61-3.38-1.2-6.76-1.86-10.13c-0.34-1.76-0.92-2.13-2.64-1.92c-2.65,0.32-4.44,2.77-3.97,5.55c0.79,4.64,1.65,9.28,2.49,13.91
			c0.64,3.54,1.32,7.06,1.92,10.61c0.46,2.71-0.46,3.9-3.19,4.21c-1.19,0.13-2.39,0.16-3.59,0.17c-4,0.01-8,0.05-11.99-0.05
			c-3.32-0.08-4.87-1.48-5.32-4.68c-0.28-1.98-0.41-4.02,0.02-5.97c1.48-6.63,2.41-13.36,3.55-20.05c0.32-1.89,0.82-3.75,1.11-5.64
			c0.31-1.99-0.56-3.47-2.07-3.77c-2.81-0.55-5.64,1.76-5.62,4.56c0.01,0.83,0.27,1.71-0.47,2.63c-0.98-1.34-1.91-2.56-3.21-3.35
			c-1.34-0.82-2.33-1.88-2.97-3.33c-0.66-1.53-1.84-2.64-3.35-3.3c-3.14-1.36-6.4-1.93-9.82-1.31c-7.74,1.4-14.26,4.99-19.5,10.87
			c-0.35,0.4-0.62,0.97-1.38,0.82c-0.84-3.27-3.04-5.5-5.82-7.27c-0.67-0.43-1.36-0.84-2.04-1.25c-3.84-2.3-7.69-4.57-11.51-6.89
			c-2.46-1.49-4.03-3.6-4.29-6.55c-0.17-1.92,0.55-3.45,2.17-4.5c1.5-0.96,2.74-0.05,3.98,0.67c4.02,2.36,7.68,5.2,10.9,8.56
			c2.06,2.15,4.52,2.57,7.25,1.77c1.84-0.54,2.07-1.31,0.74-2.71c-3.54-3.72-7.36-7.12-11.89-9.6c-3.27-1.79-6.77-2.33-10.44-1.77
			c-2.73,0.41-2.75,0.46-4.1-1.95c-2.36-4.18-5.93-6.55-10.62-7.39c-6.05-1.09-11.77-0.08-17.23,2.59
			c-7.14,3.5-13.15,8.46-18.19,14.59c-2.06,2.5-3.47,5.34-4.03,8.58c-0.73,4.22,1.25,8.08,5.15,9.8c2.05,0.9,4.21,1.44,6.49,1.54
			c10.4,0.45,19.9-2.34,28.62-7.9c1.88-1.2,3.66-2.57,5.42-3.94c0.87-0.68,1.6-0.9,2.56-0.18c3.77,2.85,8,4.97,12.04,7.39
			c1.37,0.82,2.75,1.62,3.93,2.73c3.81,3.6,3.78,8.47-0.13,11.92c-4.29,3.8-9.32,5.79-15.04,6.02c-3.61,0.14-6.43-1.68-7.45-4.86
			c-0.54-1.68-0.75-3.42-0.43-5.21c1.01-5.71,4.54-9.33,9.61-11.7c0.86-0.4,2.44-0.37,1.96-1.82c-0.41-1.24-1.85-0.78-2.78-0.61
			c-4.84,0.88-9.12,2.88-12.41,6.67c-2.08,2.39-3.7,5.07-4.05,8.27c-0.66,6,1.52,10.22,7.44,11.51c1.66,0.36,3.31,0.5,4.99,0.48
			c8.42-0.15,16.22-2.41,23.34-6.94c0.42-0.26,0.77-0.87,1.42-0.5c0.26,0.72,0.1,1.44,0.07,2.15c-0.15,3.43,1.14,6.22,3.7,8.46
			c3.02,2.64,6.51,3.94,10.53,3.91c2.58-0.02,2.7,0.04,3.19,2.53c0.92,4.67,3.63,8.1,7.27,10.92c2.24,1.74,5.28,1.83,7.65,0.37
			c1.54-0.95,1.55-1.53-0.03-2.48c-3.85-2.32-5.63-6.19-7.52-9.98c-0.54-1.09-0.12-2.06,0.8-2.74c0.63-0.47,1.37-0.81,2.09-1.15
			c2.01-0.97,4.08-1.84,6.06-2.87c2.64-1.37,5.03-3.08,7.07-5.29c0.54-0.58,0.79-1.9,1.93-1.35c1.27,0.62,0.38,1.69,0.12,2.51
			c-1.74,5.41-2.29,10.93-1.65,16.57c0.36,3.2,2.14,4.91,5.31,5.06c5.83,0.29,11.66,0.44,17.5,0.31c2.96-0.06,5.9-0.42,8.8-1
			c4.33-0.87,6.29-3.33,6.26-7.74c-0.01-1.52-0.19-3.03-0.25-4.55c-0.03-0.67-0.29-1.43,0.47-2.1
			C444.84,527.04,451.63,525.94,458.69,526.29z M560.36,423.66c-0.09-0.15-0.14-0.33-0.26-0.41c-0.6-0.39-1.22-0.76-1.84-1.11
			c-8.58-4.82-16.95-9.95-24.61-16.17c-1.2-0.97-2.46-1.33-3.98-1.21c-4.14,0.31-8.28,0.47-12.45,0.19
			c-3.45-0.23-5.92,1.38-7.46,4.55c-3.4,6.98-7.32,13.65-12.14,19.77c-0.8,1.01-1.55,2.1-1.63,3.41c-0.27,4.51,0.15,8.95,1.92,13.16
			c0.86,2.04,2.43,3.49,4.59,3.86c6.09,1.06,12.1,0.97,17.75-2.01c2.9-1.53,5.74-3.15,8.6-4.76c5.03-2.83,10.15-5.4,16-6.13
			c1.49-0.19,2.79-1.02,3.33-2.46c0.74-2,2.25-3.23,3.82-4.48c2.07-1.64,4.23-3.15,6.5-4.5
			C559.22,424.93,560.09,424.6,560.36,423.66z M259.91,436.43c-0.34,0.9-1.11,1.24-1.7,1.74c-3.51,2.91-7.05,5.77-10.56,8.68
			c-0.86,0.71-1.71,1.47-2.41,2.32c-3.03,3.71-2.55,7.05,1.43,9.7c5.12,3.41,10.28,6.76,15.42,10.13c0.4,0.26,0.82,0.5,1.24,0.73
			c4.56,2.49,8.7,2.01,12.57-1.44c1.68-1.5,3.09-3.22,4.46-5c4.86-6.35,8.8-13.31,13.35-19.87c0.67-0.97,0.53-1.61-0.48-2.16
			c-0.48-0.26-1.03-0.43-1.58-0.53c-2.96-0.57-5.1,0.4-6.85,3.21c-3.64,5.83-7.48,11.53-11.55,17.07c-1.37,1.87-2.81,3.7-4.6,5.19
			c-1.38,1.15-1.66,1.21-3.17,0.23c-2.88-1.86-5.72-3.8-8.57-5.72c-1.26-0.85-2.54-1.67-3.74-2.6c-2.68-2.07-2.9-3.61-0.89-6.26
			c1.5-1.98,3.19-3.83,5.16-5.33c7.17-5.48,13.92-11.51,21.42-16.58c0.4-0.27,0.82-0.53,1.13-0.87c0.82-0.9,1.01-1.96,0.66-3.12
			c-0.32-1.1-1.19-1.4-2.19-1.56c-2.56-0.39-4.76,0.12-6.32,2.39c-0.68,0.99-1.46,1.89-3.08,1.89c0.74-2.49,0.84-4.91,0.3-7.36
			c-0.14-0.64,0.2-1.23,0.42-1.84c0.56-1.57,0.54-3.14-0.26-4.64c-1.47-2.77-3.51-4.99-6.49-6.1c-8.06-3.01-16.28-3.89-24.67-1.5
			c-4.5,1.28-8.71,3.14-12.25,6.29c-2.59,2.31-4.05,5.13-3.65,8.69c0.38,3.36,2.15,5.94,4.64,8.12c0.83,0.73,2.32,1.16,2.36,2.18
			c0.04,0.95-0.97,1.93-1.49,2.91c-1.93,3.66-2.68,7.5-1.68,11.58c0.59,2.41,1.85,3.55,4.26,3.89c2.95,0.41,3.34,0.08,2.79-2.78
			c-0.65-3.36-0.03-6.5,1.38-9.55c1.47-3.2,2.92-3.33,5.47-2.7c6.2,1.52,12.46,2,18.71,0.21C259.21,436,259.52,436.04,259.91,436.43
			z M543.2,522.73c1.37,2.06,2.94,3.86,4.57,5.6c2.87,3.06,6.46,4.32,10.62,3.77c5.07-0.67,8.75-3.63,11.2-7.83
			c3.79-6.52,6.03-13.6,5.5-21.25c-0.54-7.82-5.58-16.67-16.39-18.75c-5.23-1-9.85,0.19-13.72,3.86
			c-4.93,4.67-7.41,10.31-6.46,17.22c0.12,0.87,0.41,1.84-0.27,2.63c-0.65-0.14-0.86-0.61-1.18-0.95
			c-5.51-5.98-12.14-10.03-20.12-11.83c-10.76-2.42-17.75,1.21-23.89,10.25c-0.32,0.47-0.65,0.96-0.35,1.55
			c0.38,0.75,1.1,0.54,1.7,0.45c1.85-0.29,3.48-1.05,4.94-2.26c1.54-1.26,1.81-1.14,2.38,0.73c0.07,0.23,0.12,0.46,0.19,0.69
			c2.48,8.44,5.77,16.56,9.88,24.34c0.9,1.7,1.28,3.4,0.81,5.3c-0.49,1.96-0.28,2.28,1.65,2.94c3.18,1.08,6.46,1.32,9.68,0.44
			c8.92-2.44,16.65-6.33,18.79-16.53C542.74,523.03,542.85,522.99,543.2,522.73z M663.19,451.6c0.51-1.07,1.34-1.44,2.07-1.89
			c1.92-1.19,3.14-2.91,3.9-5c2.43-6.72-1.52-14.22-8.43-16.02c-1.94-0.51-3.91-0.82-5.91-0.86c-7.41-0.16-14.39,1.62-21.08,4.71
			c-1.17,0.54-2.22,1.26-3.12,2.19c-2.15,2.25-2.49,4.91-1.71,7.8c0.23,0.84,0.75,1.47,1.67,1.46c0.99-0.01,1.3-0.77,1.47-1.61
			c0.05-0.24,0.06-0.48,0.12-0.71c0.52-1.85,2.83-3.74,4.74-3.9c0.68-0.06,1.26,0.13,1.73,0.64c2.78,3,5.96,5.56,9.01,8.26
			c1.54,1.37,2.46,3.14,2.73,5.2c0.16,1.22-0.32,1.78-1.52,1.96c-0.74,0.11-1.41-0.07-2.06-0.43c-4.02-2.22-8.4-3.44-12.79-4.65
			c-3.96-1.09-7.99-1.62-12.08-1.42c-2.23,0.11-3.1,1.12-3.33,3.31c-0.14,1.37,0.31,2.5,1.29,3.45c1.27,1.23,2.33,2.62,3.31,4.1
			c1.37,2.06,2.79,4.1,4.24,6.1c1.29,1.77,2.36,3.6,2.41,5.88c0.02,0.87,0.34,1.68,1.31,1.72c1.36,0.05,1.92,0.97,2.52,1.93
			c2.49,3.91,4.98,7.82,7.47,11.72c0.34,0.54,0.66,1.11,1.09,1.57c1.13,1.19,2.35,0.98,3.02-0.52c0.77-1.72,0.73-3.52-0.4-5.02
			c-2.84-3.77-4.93-8.04-7.87-11.74c-1.1-1.38-1.04-1.65,0.49-2.57c2.2-1.31,4.48-2.52,6.45-4.14c2.37-1.95,4.55-2.03,7.18-0.39
			c5.57,3.47,11.09,6.97,16.14,11.18c1.68,1.4,2.6,1.07,3.3-0.97c0.81-2.36,0-4.19-1.77-5.76c-3.9-3.47-8.21-6.35-12.71-8.96
			c-0.69-0.4-1.41-0.79-1.99-1.31c-0.88-0.8-0.92-1.7-0.28-2.56c0.67-0.89,1.52-0.85,2.34-0.36c1.09,0.66,2.14,1.4,3.16,2.17
			c4.82,3.6,10,6.59,15.57,8.87c0.66,0.27,1.33,0.56,2.03,0.7c1.4,0.26,2.12-0.27,2.41-1.64c0.46-2.18-0.22-3.75-2.18-4.84
			c-0.83-0.46-1.73-0.81-2.6-1.21C670.59,456.21,666.77,454.23,663.19,451.6z M594.73,418.26c0.62,0.92,1.56,0.88,2.37,1.09
			c4.85,1.27,9.29,3.33,13.14,6.61c2.38,2.03,5.11,3.54,7.94,4.86c1.5,0.7,2.73,0.53,3.89-0.68c1.72-1.78,3.52-3.48,5.24-5.26
			c3.66-3.79,7.31-7.58,10.92-11.42c1.66-1.76,1.6-1.98-0.3-3.57c-1.05-0.87-2.22-1.69-2.84-2.89c-1.54-2.97-4-3.98-7.19-4.02
			c-3.98-0.05-7.93-0.78-11.94-0.29c-2.51,0.3-4.56,1.25-6.3,3.06c-3.77,3.94-7.88,7.46-12.57,10.26
			C596.15,416.59,595.24,417.23,594.73,418.26z M667.78,410.92c-3.06-0.49-6.38,0.12-9.69,0.64c-2.95,0.46-3.89,2.11-2.99,4.96
			c0.36,1.13,1.06,1.96,2,2.61c4.08,2.85,7.6,6.36,11.3,9.65c1.09,0.97,2.07,1.98,2.32,3.52c0.12,0.72,0.49,1.46,1.4,1.36
			c1.57-0.17,2.5,0.79,3.5,1.73c3.62,3.38,7.26,6.75,10.89,10.12c0.41,0.38,0.8,0.79,1.25,1.11c1.37,0.99,2.17,0.69,2.55-0.93
			c0.49-2.14-0.03-3.88-1.75-5.36c-3.7-3.18-7.31-6.45-10.96-9.69c-0.65-0.58-1.48-1.11-0.49-2.11c2.07-2.11,4.07-4.28,6.17-6.37
			c1.62-1.61,3.48-1.97,5.71-1.17c6.45,2.33,12.93,4.58,19.05,7.74c0.28,0.15,0.56,0.32,0.86,0.42c1.21,0.4,1.81,0.07,2.11-1.15
			c0.56-2.3-0.22-4.29-2.24-5.57c-0.74-0.47-1.53-0.86-2.32-1.24c-4.32-2.08-8.72-3.96-13.31-5.35c-1.76-0.53-2.97-1.5-3.3-3.38
			c-0.06-0.31-0.1-0.64-0.23-0.93c-0.38-0.86-0.95-1.28-1.88-0.7c-0.27,0.17-0.55,0.34-0.78,0.55c-1.71,1.52-3.6,1.71-5.81,1.18
			C676.87,411.52,672.51,410.93,667.78,410.92z M619.94,502.17c2.28,0.15,4.73-0.27,7.09-1.02c4.2-1.32,7.37-3.91,8.72-8.2
			c2.14-6.81,0.88-13.28-4.79-17.97c-6.68-5.53-14.22-9.42-22.2-12.56c-2-0.79-4.05-1.46-6.08-2.2c-1-0.37-1.95-0.28-2.59,0.61
			c-2.31,3.2-5.61,5.18-8.78,7.34c-1.46,0.99-2.86,2.05-3.97,3.44c-1.13,1.42-1.77,3.02-1.71,4.86c0.01,0.41,0.04,0.82,0.45,1.04
			c0.54,0.3,0.93-0.03,1.22-0.41c1.55-2.01,3.74-3.22,5.8-4.58c1.94-1.28,3.82-2.65,5.41-4.35c1.08-1.15,2.27-1.37,3.69-0.85
			c6.14,2.26,12.26,4.58,17.87,8.03c4.32,2.66,8.27,5.77,11.5,9.69c2.98,3.62,2.12,7.15-2.12,9.12c-0.72,0.34-1.47,0.64-2.23,0.84
			c-4.56,1.23-9.03,0.74-13.4-0.9c-3.34-1.25-5.62-3.55-6.72-6.99c-0.2-0.62-0.12-1.65-1.06-1.67c-0.92-0.02-1.21,0.93-1.58,1.62
			c-0.22,0.42-0.39,0.88-0.5,1.34c-0.93,3.98,0.9,8.39,4.41,10.6C611.81,501.18,615.58,502.31,619.94,502.17z M602.85,444.72
			c-1.32-0.2-2.3-0.84-3.23-1.64c-1.43-1.21-1.45-1.18-2.54,0.22c-0.24,0.32-0.49,0.63-0.74,0.94c-0.61,0.76-1.44,0.92-2.08,0.27
			c-1.94-1.95-3.6-1.32-5.28,0.33c-0.39,0.38-0.92,0.63-1.4,0.9c-0.67,0.38-1.49,0.53-2.04,0.03c-2.02-1.82-3.5-0.88-4.96,0.76
			c-0.36,0.41-0.88,0.68-1.34,1c-0.78,0.54-1.66,0.73-2.48,0.23c-1.51-0.92-2.71-0.47-3.87,0.62c-0.34,0.33-0.76,0.6-1.17,0.82
			c-1.32,0.72-1.96,0.55-2.83-0.67c-1.55-2.19-1.55-2.19-4.22-1.18c-0.07,0.03-0.15,0.06-0.23,0.08c-1.57,0.53-2.16,0.34-2.91-1.15
			c-0.46-0.92-0.76-1.93-1.13-2.89c-0.65-1.67-0.67-1.75-2.41-1.31c-1.35,0.35-2.34,0.05-3.1-1.1c-0.18-0.27-0.33-0.55-0.54-0.79
			c-0.86-0.97-1.67-0.92-2.23,0.22c-0.31,0.63-0.49,1.36-0.57,2.06c-0.39,3.26-0.46,6.53-0.05,9.79c0.46,3.63,2.88,6.19,6.47,6.68
			c2.77,0.38,5.5,0.97,8.24,1.51c1.42,0.28,2.84,0.65,3.89,1.7c1.28,1.29,2.56,1.26,4.11,0.47c9.41-4.78,18.56-9.99,27.13-16.17
			C601.89,446.07,602.63,445.82,602.85,444.72z M572.34,390.37c0.49-0.45,0.47-0.86,0.47-1.25c0.01-1.68-0.02-3.36,0.02-5.04
			c0.05-2.28,1.16-3.66,2.92-3.67c1.58-0.01,2.64,1.28,2.81,3.55c0.1,1.35,0.06,2.72,0.1,4.07c0.02,0.64,0,1.38,0.61,1.72
			c0.77,0.44,1.36-0.16,1.92-0.61c3.43-2.77,6.07-6.11,7.4-10.39c0.83-2.68,1.37-5.41,1.92-8.16c0.72-3.65,0.65-3.74-3.11-3.73
			c-6.79,0.02-13.59,0.17-20.37-0.39c-1.51-0.12-3.04-0.11-4.55-0.05c-2.1,0.09-2.78,0.85-2.49,2.87c0.36,2.53,0.77,5.06,1.31,7.55
			c0.58,2.66,1.48,5.23,3.12,7.47C566.46,387.16,569.11,389.19,572.34,390.37z M264.04,476.46c0.56,0.48,0.88,0.84,1.28,1.09
			c5.06,3.2,10.13,6.39,15.21,9.55c1.51,0.94,3.22,0.87,4.89,0.58c1.6-0.28,1.8-0.98,0.66-2.26c-1.12-1.26-2.36-2.43-3.84-3.23
			c-3.31-1.8-3.22-2.11-0.44-4.89c6.96-6.97,14.59-13.17,22.19-19.4c2.1-1.71,2.11-2.39,4.31,0.11c1.79,2.04,4.18,2.89,6.94,2.09
			c1.6-0.46,1.77-0.84,0.77-2.1c-1.39-1.75-2.85-3.45-4.34-5.12c-1.82-2.05-3.91-3.74-6.37-5.01c-2.17-1.12-4.43-1.2-6.77-0.9
			c-0.42,0.05-0.79,0.25-0.86,0.69c-0.07,0.44,0.2,0.73,0.58,0.95c0.9,0.52,1.88,0.88,2.65,1.62c0.93,0.9,1.03,1.49,0.18,2.47
			c-0.62,0.72-1.36,1.36-2.11,1.94c-7.25,5.65-14.34,11.5-20.93,17.93c-2,1.95-4.31,2.88-7.18,2.36
			C268.55,474.53,266.27,474.86,264.04,476.46z M478.18,318.49c0.1-2.22-0.31-4.31-1.63-6.15c-1.38-1.93-3.2-2.76-5.62-2.22
			c-4.11,0.92-6.67,3.39-7.43,7.5c-1.61,8.75,0.18,16.82,5.17,24.18c0.81,1.2,1.83,2.23,3.05,3.03c1.26,0.82,2.55,1.99,4.14,1.2
			c1.5-0.75,1.35-2.4,1.46-3.83C477.92,334.3,477.05,326.36,478.18,318.49z M557.06,404.92c0,0.03,0,0.05,0,0.08
			c-3.43,0-6.87,0.02-10.3-0.01c-1.76-0.01-3.51-0.13-5.27-0.17c-0.64-0.02-1.39,0.02-1.6,0.72c-0.19,0.62,0.45,0.96,0.89,1.29
			c1.57,1.23,3.1,2.52,4.74,3.66c2.36,1.64,4.85,3.09,7.2,4.75c6.24,4.41,13.17,4.9,20.4,3.72c1.87-0.3,2.06-0.6,1.97-2.58
			c-0.14-3.03-0.35-6.06-0.51-9.09c-0.15-2.69-0.44-3.03-3.15-2.95C566.63,404.49,561.84,404.72,557.06,404.92z M607.22,403.89
			c-2.42,0.22-4.41,0.35-6.4,0.3c-6.14-0.16-12.29,0.43-18.43-0.29c-1.51-0.18-2.11,0.44-1.98,1.97c0.3,3.42,0.54,6.85,0.5,10.28
			c-0.01,0.63,0.25,1.15,0.94,1.14c2.93-0.05,5.87,0.43,8.77-0.66c5.27-1.99,9.72-5.13,13.61-9.13
			C605.2,406.48,606.27,405.52,607.22,403.89z M604.85,435.81c0.84,2.39,0.48,4.76,0.15,7.17c1.97-0.54,3.27-1.42,4.11-2.74
			c1.25-1.96,0.17-4.38-2.12-4.68C606.38,435.47,605.73,435.38,604.85,435.81z M645.02,404.59c-0.25-0.99-1.22-0.89-2.02-0.72
			c-0.94,0.2-2.44-0.37-2.54,1.31c-0.08,1.4,1.12,2.67,2.22,2.57C643.68,407.65,645.07,405.92,645.02,404.59z"/>
		<path class="st2" d="M436.36,192.92c1.32,0.77,2.53,0.74,3.73,0.76c17.98,0.27,35.64,2.97,53.08,7.17
			c7.01,1.69,13.77,4.12,20.27,7.24c2.6,1.25,5.1,2.67,7.32,4.53c0.37,0.31,0.74,0.61,1.06,0.97c0.84,0.96,0.64,1.59-0.61,1.72
			c-1.67,0.17-3.35,0.25-5.02,0.29c-29.07,0.74-55.53,9.62-79.71,25.58c-15.34,10.12-29.45,21.74-42.06,35.13
			c-4.05,4.31-7.89,8.82-11.82,13.24c-0.31,0.35-0.71,0.67-0.66,1.33c1.16,0.35,2.12-0.3,3.09-0.73c5.63-2.49,11.19-5.13,16.86-7.5
			c15.97-6.67,32.44-11.72,49.47-14.86c3.55-0.65,7.16-0.74,10.71,0.17c2.17,0.56,2.46,1.49,0.91,3.11
			c-3.32,3.49-7.12,6.43-10.81,9.48c-7.76,6.42-14.58,13.66-19.48,22.55c-2.44,4.43-4.23,9.12-5.76,13.93
			c-0.63,1.97-0.83,4.08-1.95,5.89c-0.17,0.28-0.19,0.62,0.07,0.88c0.29,0.29,0.59,0.1,0.86-0.05c2.08-1.2,4.16-2.39,6.22-3.61
			c6.55-3.9,13.37-7.19,20.8-9.06c1.7-0.43,3.41-0.83,5.13-1.2c0.69-0.15,1.47-0.39,2.03,0.26c0.7,0.8,0.04,1.5-0.31,2.18
			c-1.68,3.3-2.82,6.75-3.36,10.44c-0.42,2.91-0.19,5.74,0.41,8.56c0.88,4.12,2.81,7.82,4.91,11.4c2.22,3.79,5.83,5.81,10.03,6.84
			c1.24,0.3,2.5,0.56,3.72,0.92c2.01,0.6,3.26,1.96,3.7,4.02c0.3,1.4,0.66,2.81,0.76,4.24c0.18,2.53,1.04,4.8,2.11,7.06
			c1.19,2.53,2.34,5.09,3.25,7.73c4.22,12.2,12.71,20.04,24.63,24.45c0.79,0.29,1.66,0.45,2.53,1.55c-2.16,0.05-3.95,0.09-5.73,0.14
			c-3.83,0.12-7.65-0.25-11.5,0.15c-6.64,0.69-12.8,2.72-18.55,6.02c-5.2,2.99-10.18,6.33-14.91,10.03
			c-5.43,4.24-9.43,9.45-11.61,16.08c-1.51,4.58-2.97,9.1-2.72,14.01c0.22,4.28,1.14,8.38,2.93,12.27c1.17,2.55,3.13,4.41,5.3,6.08
			c8.59,6.59,18.17,11.27,28.39,14.72c1.66,0.56,3.36,1.03,5.04,1.56c0.59,0.18,1.26,0.3,1.38,1.19c-3.03,0.87-6.15,0.89-9.21,1.06
			c-10.14,0.56-20.29,0.73-30.43,0.03c-14.77-1.02-29.36-3.27-43.73-6.87c-31.72-7.95-60.39-22.08-85.89-42.54
			c-30.62-24.57-52.18-55.5-64.34-92.86c-4.04-12.42-6.55-25.18-7.67-38.21c-3.9-45.09,7.6-85.99,33.6-122.87
			c18.97-26.91,43.52-47.52,72.38-63.11c21.55-11.64,44.51-19.26,68.58-23.64c16.1-2.93,32.33-4.27,48.67-3.66
			c47.81,1.78,91.58,15.74,130.38,44.07c25.31,18.48,45.49,41.54,59.93,69.47c1.17,2.27,2.05,4.69,3.62,6.75
			c0.4,0.52,0.59,1.13,0.17,1.91c-1.38-0.85-2.02-2.23-2.7-3.57c-3.21-6.29-7-12.2-11.45-17.68c-5.75-7.08-12.45-13.09-20.2-17.88
			c-7.28-4.5-14.65-8.83-22.64-11.99c-3.05-1.2-6.16-2.22-9.32-3.08c-0.46-0.12-0.92-0.3-1.39-0.35c-0.89-0.09-1.21,0.33-0.84,1.13
			c0.55,1.17,1.36,2.16,2.21,3.12c3.23,3.66,6.52,7.26,9.67,10.98c5.08,5.99,9.63,12.35,13.41,19.25c1.54,2.81,2.91,5.69,3.92,8.73
			c0.54,1.62,0.05,2.14-1.57,1.7c-1.47-0.4-2.86-1.02-4.16-1.82c-15.54-9.6-32.58-14.96-50.5-17.84
			c-9.64-1.55-19.32-2.45-29.07-2.92c-10-0.49-19.98-0.31-29.96,0.25c-12.05,0.67-24.02,2.13-35.95,3.99
			c-9.08,1.42-18.13,2.92-26.98,5.46c-3.07,0.88-6.11,1.86-9.24,2.52C438.61,191.58,437.44,191.9,436.36,192.92z"/>
		<path class="st3" d="M669.29,317.39c0.62,0.99,0.71,2.08,0.63,3.22c-0.08,1.11-0.19,2.23,0.31,3.4c1.25-0.27,2.06-1.16,2.87-1.99
			c2.84-2.92,6.37-3.47,10.17-3c1.76,0.21,2.87,1.25,3.2,3.07c1.96,10.79-0.39,20.3-8.26,28.2c-1.66,1.67-3.63,2.86-5.82,3.71
			c-2.1,0.81-2.6,0.55-3.24-1.66c-0.29-1-0.44-2.02-0.41-3.08c0.04-1.19,0.01-2.38,0.01-3.78c-1.14,0.57-1.12,1.48-1.15,2.28
			c-0.33,9.44-2.73,18.45-5.66,27.36c-0.98,2.97-2.23,5.82-3.95,8.44c-4.87,7.44-11.81,11.55-20.58,12.49
			c-8.02,0.85-16.05,1.76-24.11,2.19c-6.79,0.36-13.59,0.22-20.38,0.31c-3.59,0.05-7.18-0.2-10.76,0.44
			c-1.81,0.32-2.41-0.23-2.93-2.02c-0.67-2.3-0.29-3.63,1.58-5.05c1.65-1.25,3.13-2.74,4.99-3.72c0.8-0.42,1.26-1.22,1.73-1.96
			c3.58-5.67,6.1-11.75,7.08-18.43c0.06-0.4,0.11-0.79,0.13-1.19c0.09-1.82-0.14-2.13-1.97-2.17c-3.52-0.08-7.04-0.05-10.55-0.12
			c-6.87-0.14-13.75-0.33-20.62-0.49c-0.4-0.01-0.8-0.06-1.2-0.04c-2.79,0.15-3.95,1.35-3.74,4.13c0.47,6.39,2.17,12.41,5.55,17.91
			c2.18,3.54,5,6.19,9.29,6.93c1.57,0.27,1.99,1.12,2.02,3.27c0.02,1.75-0.41,2.43-1.98,2.79c-1.73,0.39-3.51,0.39-5.25,0.14
			c-4.95-0.73-9.89-0.47-14.84-0.15c-12.63,0.82-25.04-0.06-37.17-4.06c-7.1-2.35-13.56-5.6-18.76-11.1
			c-1.88-1.99-3.48-4.16-4.63-6.66c-2.54-5.51-5.19-10.97-6.57-16.94c-1.09-4.7-1.6-9.45-1.31-14.27c0.13-2.16,0.19-4.24-0.93-6.29
			c-0.68-1.23-0.43-2.81-0.48-4.25c-0.16-4.74,0.63-9.4,1.1-14.09c0.21-2.15,0.47-4.29,0.79-6.42c0.42-2.82,1.43-3.87,4.18-4.52
			c4.91-1.16,9.9-1.86,14.92-2.26c17.15-1.39,34.32-1.95,51.52-1.43c17.26,0.52,34.52,0.93,51.76,1.9
			c10.94,0.62,21.83,1.69,32.63,3.57c0.63,0.11,1.27,0.12,1.9,0.18c1.32,0.3,2.63,0.65,3.97,0.88c0.57,0.1,1.28,0.41,1.7-0.37
			c0.39,0.03,0.84-0.05,1.18,0.11c2.83,1.35,5.9,1.92,8.92,2.6C660.47,316.35,664.75,317.77,669.29,317.39z M628.43,364.95
			c1.69,0.15,3.98-0.26,6.26-0.6c2.72-0.41,5.23-1.43,7.28-3.33c2.35-2.18,2.39-4.89,0.08-7.09c-1.7-1.62-3.74-2.7-5.99-3.36
			c-2.15-0.63-4.34-1.01-6.56-1.25c-5.89-0.63-11.39,0.7-16.61,3.39c-1.29,0.66-1.76,1.69-1.56,3.16c0.41,2.91,1.88,5,4.46,6.39
			C619.54,364.27,623.6,364.88,628.43,364.95z M517.74,359.25c2.79,0.14,5.62-0.42,8.4-1.13c1.62-0.42,3.18-1.05,4.63-1.93
			c0.74-0.45,1.23-1.03,1.08-1.96c-0.44-2.83-1.29-5.45-3.77-7.22c-1.18-0.84-2.42-1.57-3.75-2.11c-6.17-2.51-12.46-2.4-18.8-0.76
			c-1.24,0.32-2.39,0.9-3.46,1.61c-1.34,0.88-1.86,2.01-1.48,3.68c0.72,3.17,2.43,5.53,5.29,7.03
			C509.56,358.38,513.46,359.41,517.74,359.25z M508.49,317.9c-0.95,0-1.43-0.02-1.91,0c-1.97,0.11-2.49,0.74-2.45,2.7
			c0.02,1.11,0.57,1.77,1.45,2.29c1.25,0.73,2.55,1.33,3.93,1.75c3.21,0.97,6.4,1.99,9.63,2.87c8.78,2.37,17.56,4.73,25.82,8.66
			c0.22,0.1,0.44,0.19,0.67,0.27c1.1,0.36,1.87-0.1,2.4-1.02c0.52-0.9-0.03-1.49-0.63-2.07c-0.65-0.62-1.44-0.99-2.24-1.35
			c-2.33-1.04-4.67-2.06-6.98-3.15c-5.55-2.62-11.03-5.4-16.73-7.72C517.14,319.36,512.69,318.15,508.49,317.9z M598.85,335.64
			c1.84,0.61,3.32-0.22,4.87-0.45c8.76-1.27,17.51-2.57,26.27-3.82c3.79-0.54,7.59-0.97,11.38-1.48c1.93-0.26,2.41-0.85,2.48-2.84
			c0.01-0.4-0.01-0.8-0.04-1.2c-0.18-2.25-0.63-2.62-2.84-2.36c-6.73,0.78-13.43,1.79-20.09,3.08c-6.6,1.28-13,3.16-19.09,6.04
			C600.5,333.24,599.17,333.82,598.85,335.64z"/>
		<path class="st4" d="M669.29,317.39c-4.54,0.38-8.82-1.04-13.14-2.01c-3.01-0.68-6.08-1.25-8.92-2.6
			c-0.33-0.16-0.78-0.08-1.18-0.11c-1.41-0.39-2.74-1.15-4.28-0.93c-3.26-1.44-6.77-1.82-10.24-2.34c-7.34-1.1-14.69-2.21-22.06-3.1
			c-6.18-0.75-12.4-1.25-18.61-1.78c-7.48-0.64-14.97-1.24-22.46-1.78c-7.42-0.53-14.85-0.6-22.28-0.68
			c-10.31-0.11-20.62-0.13-30.92,0.51c-6.86,0.43-13.71,1.06-20.58,1.21c-2.08,0.05-4.16,0.04-6.23-0.07
			c-2.34-0.13-2.74-0.52-2.89-2.89c-0.13-2.07-0.13-4.16-0.08-6.23c0.14-5.6,0.8-11.16,1.2-16.73c0.15-2.13,1.25-3.09,3.18-3.58
			c4.42-1.14,8.94-1.7,13.45-2.3c7.84-1.06,15.68-2.01,23.57-2.64c10.29-0.82,20.59-1.11,30.89-1.24
			c12.55-0.16,25.1,0.13,37.62,0.91c19.15,1.19,38.2,3.18,56.93,7.62c4.12,0.98,8.16,2.21,12.19,3.47c1.88,0.58,2.64,1.7,2.73,3.66
			c0.41,8.22,1.2,16.42,1.99,24.61c0.12,1.19,0.35,2.37,0.48,3.56C669.85,313.77,669.83,315.6,669.29,317.39z M582.34,298.86
			c5.01,0.9,11.09-2.5,13.72-8.29c2.11-4.64,1.26-9.96-2.1-13.37c-5.25-5.32-13.74-6.31-20.07-2.35
			c-6.35,3.97-9.38,15.23-0.63,21.27C576.05,298.03,579.06,299.12,582.34,298.86z"/>
		<path class="st5" d="M503.35,405.32c1.44-0.07,2.87-0.16,4.31-0.21c1.22-0.04,1.6,0.48,1.15,1.6c-0.17,0.44-0.48,0.82-0.73,1.23
			c-1.51,2.55-3.24,4.95-5.1,7.25c-4.37,5.38-7.63,11.41-10.61,17.61c-0.45,0.94-0.77,1.93-0.87,2.97
			c-0.36,3.69-0.15,7.34,0.96,10.9c1.39,4.46,4.46,7.2,9.02,7.96c7.03,1.18,14.01,0.98,20.78-1.54c3.59-1.34,7.11-2.85,10.57-4.49
			c1.75-0.83,3.31-1.92,4.7-3.27c2.04-1.99,4.69-2.64,7.33-3.3c0.89-0.23,1.2,0.33,1.15,1.05c-0.05,0.79-0.23,1.58-0.43,2.35
			c-0.94,3.57-0.88,7.1,0.17,10.64c0.32,1.09,0.87,1.74,1.96,2.19c4.23,1.73,8.45,3.29,13.15,3.26c2.05-0.01,4.11,0.56,6.08,1.24
			c0.3,0.1,0.62,0.17,0.91,0.28c0.62,0.24,1.17,0.55,1.18,1.33c0,0.65-0.43,1-0.94,1.27c-0.35,0.18-0.72,0.33-1.09,0.5
			c-13.34,6.25-27.23,10.95-41.45,14.75c-3.21,0.86-6.51,0.99-9.76,0.51c-4.89-0.72-9.76-1.67-14.62-2.57
			c-3.94-0.73-7.71-2.06-11.38-3.65c-6.08-2.63-12.13-5.33-18.21-7.97c-4.63-2.01-8.54-5-11.88-8.73
			c-4.71-5.27-5.98-11.51-4.88-18.33c0.42-2.6,1.18-5.13,2.09-7.61c1.91-5.2,5.21-9.31,9.8-12.38c6.51-4.37,13.26-8.31,20.32-11.73
			C492.19,405.93,497.68,405.13,503.35,405.32z"/>
		<path class="st6" d="M458.69,526.29c-7.06-0.35-13.85,0.75-20.16-2.12c-0.76,0.67-0.5,1.43-0.47,2.1
			c0.06,1.52,0.24,3.03,0.25,4.55c0.03,4.41-1.93,6.88-6.26,7.74c-2.9,0.58-5.84,0.93-8.8,1c-5.84,0.13-11.67-0.02-17.5-0.31
			c-3.17-0.16-4.94-1.86-5.31-5.06c-0.64-5.64-0.09-11.16,1.65-16.57c0.27-0.83,1.15-1.89-0.12-2.51c-1.13-0.55-1.39,0.76-1.93,1.35
			c-2.03,2.2-4.43,3.92-7.07,5.29c-1.98,1.03-4.04,1.9-6.06,2.87c-0.72,0.34-1.45,0.69-2.09,1.15c-0.92,0.68-1.34,1.65-0.8,2.74
			c1.88,3.79,3.67,7.66,7.52,9.98c1.58,0.95,1.57,1.54,0.03,2.48c-2.37,1.46-5.41,1.37-7.65-0.37c-3.63-2.82-6.35-6.25-7.27-10.92
			c-0.49-2.49-0.61-2.55-3.19-2.53c-4.02,0.03-7.51-1.27-10.53-3.91c-2.57-2.25-3.85-5.03-3.7-8.46c0.03-0.71,0.2-1.43-0.07-2.15
			c-0.65-0.37-1.01,0.24-1.42,0.5c-7.13,4.52-14.92,6.79-23.34,6.94c-1.68,0.03-3.33-0.11-4.99-0.48c-5.92-1.29-8.1-5.51-7.44-11.51
			c0.35-3.2,1.96-5.88,4.05-8.27c3.29-3.78,7.57-5.79,12.41-6.67c0.93-0.17,2.37-0.63,2.78,0.61c0.48,1.45-1.1,1.42-1.96,1.82
			c-5.07,2.37-8.6,5.99-9.61,11.7c-0.31,1.78-0.11,3.52,0.43,5.21c1.02,3.17,3.84,5,7.45,4.86c5.72-0.23,10.75-2.22,15.04-6.02
			c3.9-3.46,3.94-8.32,0.13-11.92c-1.17-1.11-2.56-1.91-3.93-2.73c-4.04-2.42-8.26-4.54-12.04-7.39c-0.96-0.72-1.68-0.5-2.56,0.18
			c-1.76,1.37-3.54,2.75-5.42,3.94c-8.73,5.55-18.23,8.35-28.62,7.9c-2.27-0.1-4.43-0.63-6.49-1.54c-3.9-1.71-5.87-5.58-5.15-9.8
			c0.56-3.24,1.96-6.08,4.03-8.58c5.05-6.12,11.05-11.09,18.19-14.59c5.45-2.67,11.18-3.68,17.23-2.59
			c4.69,0.84,8.26,3.22,10.62,7.39c1.36,2.4,1.38,2.36,4.1,1.95c3.67-0.55,7.17-0.01,10.44,1.77c4.54,2.48,8.36,5.88,11.89,9.6
			c1.33,1.4,1.1,2.17-0.74,2.71c-2.73,0.8-5.19,0.38-7.25-1.77c-3.22-3.37-6.88-6.2-10.9-8.56c-1.24-0.73-2.48-1.63-3.98-0.67
			c-1.63,1.04-2.34,2.57-2.17,4.5c0.26,2.95,1.82,5.06,4.29,6.55c3.83,2.32,7.67,4.59,11.51,6.89c0.69,0.41,1.37,0.82,2.04,1.25
			c2.78,1.77,4.98,4,5.82,7.27c0.77,0.15,1.03-0.42,1.38-0.82c5.24-5.89,11.76-9.47,19.5-10.87c3.42-0.62,6.69-0.05,9.82,1.31
			c1.5,0.65,2.68,1.77,3.35,3.3c0.63,1.45,1.62,2.51,2.97,3.33c1.3,0.79,2.23,2.01,3.21,3.35c0.74-0.92,0.47-1.8,0.47-2.63
			c-0.02-2.81,2.82-5.11,5.62-4.56c1.51,0.3,2.39,1.78,2.07,3.77c-0.3,1.89-0.79,3.75-1.11,5.64c-1.14,6.69-2.07,13.41-3.55,20.05
			c-0.43,1.95-0.3,3.99-0.02,5.97c0.45,3.2,1.99,4.6,5.32,4.68c3.99,0.1,7.99,0.06,11.99,0.05c1.2,0,2.4-0.03,3.59-0.17
			c2.73-0.31,3.65-1.5,3.19-4.21c-0.6-3.54-1.28-7.07-1.92-10.61c-0.84-4.64-1.7-9.27-2.49-13.91c-0.47-2.78,1.32-5.23,3.97-5.55
			c1.72-0.21,2.3,0.16,2.64,1.92c0.65,3.37,1.25,6.75,1.86,10.13c0.14,0.77,0.19,1.57,0.67,2.2c0.83,0.04,0.96-0.6,1.18-1.07
			c3.36-7.04,9.06-11.7,15.79-15.17c6.83-3.52,14.6-1.73,19.73,4.21c1.53,1.77,2.59,3.83,3.68,5.88c0.61,1.14,0.41,2.16-0.55,3.02
			c-0.3,0.27-0.61,0.52-0.93,0.75c-2.76,2.02-3.82,1.87-5.37-1.22c-2.26-4.52-5.74-7.58-10.39-9.42c-2.82-1.11-5.48-0.86-7.99,0.8
			c-4.08,2.69-7.04,6.25-8.25,11.06c-0.83,3.3,0.53,5.67,3.8,6.6c2.32,0.66,4.72,0.82,7.12,0.94c5.14,0.25,10.21-0.51,15.28-1.14
			c1.35-0.17,2.69-0.37,4.04-0.56c0.56-0.08,1.15-0.2,1.49,0.42c0.38,0.7-0.02,1.22-0.5,1.67c-1.17,1.12-2.55,1.93-4.03,2.55
			c-3.9,1.64-7.82,3.23-11.62,5.09c-3.59,1.76-7.13,3.59-10.44,5.84c-0.8,0.54-1.59,1.08-2.17,1.87c-1.75,2.39-0.73,5.2,2.12,5.97
			c2.25,0.61,4.45,0.25,6.63-0.28c5.53-1.34,10.67-3.78,15.94-5.83c1.93-0.75,3.85-1.53,5.8-2.26c0.8-0.3,1.8-0.78,2.28,0.34
			c0.5,1.14-0.43,1.72-1.27,2.23c-0.14,0.08-0.29,0.14-0.44,0.2c-7.44,2.88-14.63,6.39-22.3,8.66c-3.3,0.97-6.61,1.87-10.11,1.72
			c-1.47-0.06-2.85-0.4-4.1-1.17c-1.66-1.04-2.32-2.59-1.96-4.51c0.51-2.65,2.04-4.66,4.09-6.29c4.08-3.24,8.51-5.94,13.17-8.25
			C456.72,527.62,457.67,527.35,458.69,526.29z M376.29,498.33c3.23-1.46,6.66-2.28,10.16-3.1c-0.6-0.58-1.23-0.63-1.87-0.7
			c-3.74-0.42-6.67,1.1-9.11,3.8c-0.96,0.26-1.69,0.9-2.38,1.56c-3.11,3.02-5.23,6.68-6.31,10.83c-1.4,5.34,2.41,11.29,7.76,12.51
			c1.41,0.32,1.57,0.21,1.95-1.22c0.31-1.16,0.55-2.34,0.98-3.45c1.11-2.81,3.7-4.5,6.52-4.38c1.61,0.07,1.9,0.51,1.01,1.85
			c-1.39,2.1-1.73,4.4-1.69,6.84c0.34,0,0.59,0.07,0.8-0.01c4.78-1.75,8.75-4.63,11.7-8.78c2.25-3.16,2-8.08-0.63-10.93
			c-3.66-3.97-8.18-5.74-13.62-4.39c-1.08,0.27-2.11,0.73-3.19,1.01C377.06,500.1,376.84,499.9,376.29,498.33z M331.86,477.31
			c0.08-1.88-0.3-3.65-1.03-5.37c-0.6-1.41-1.57-2.14-3.15-2.06c-0.87,0.04-1.76,0.05-2.62-0.07c-1.1-0.16-1.92-0.49-1.6-2.03
			c0.27-1.33-0.35-1.76-1.66-1.4c-3.16,0.88-6.24,1.94-9,3.79c-5.77,3.87-10.64,8.66-14.77,14.23c-1.02,1.38-1.7,2.89-2.02,4.56
			c-1.26,6.53,2.86,10.86,9.4,9.94c2.07-0.29,4.07-0.82,6.03-1.51c5.76-2.02,11.27-4.5,15.69-8.9
			C330.23,485.4,331.61,481.6,331.86,477.31z"/>
		<path class="st7" d="M560.36,423.66c-0.27,0.94-1.14,1.27-1.87,1.71c-2.27,1.35-4.43,2.85-6.5,4.5c-1.57,1.24-3.07,2.48-3.82,4.48
			c-0.54,1.44-1.84,2.27-3.33,2.46c-5.85,0.73-10.97,3.3-16,6.13c-2.86,1.6-5.7,3.23-8.6,4.76c-5.64,2.98-11.66,3.07-17.75,2.01
			c-2.16-0.38-3.73-1.82-4.59-3.86c-1.77-4.21-2.19-8.65-1.92-13.16c0.08-1.31,0.83-2.4,1.63-3.41c4.82-6.12,8.74-12.79,12.14-19.77
			c1.54-3.16,4.02-4.78,7.46-4.55c4.16,0.28,8.3,0.12,12.45-0.19c1.53-0.11,2.79,0.24,3.98,1.21c7.66,6.22,16.03,11.35,24.61,16.17
			c0.62,0.35,1.24,0.73,1.84,1.11C560.22,423.33,560.27,423.51,560.36,423.66z"/>
		<path class="st8" d="M259.91,436.43c-0.38-0.39-0.69-0.43-1.01-0.34c-6.26,1.79-12.52,1.31-18.71-0.21
			c-2.55-0.62-3.99-0.5-5.47,2.7c-1.4,3.05-2.03,6.18-1.38,9.55c0.55,2.86,0.16,3.19-2.79,2.78c-2.41-0.34-3.67-1.47-4.26-3.89
			c-0.99-4.08-0.25-7.92,1.68-11.58c0.52-0.98,1.52-1.96,1.49-2.91c-0.04-1.03-1.53-1.45-2.36-2.18c-2.49-2.18-4.26-4.76-4.64-8.12
			c-0.4-3.56,1.06-6.38,3.65-8.69c3.54-3.16,7.75-5.01,12.25-6.29c8.4-2.39,16.61-1.51,24.67,1.5c2.98,1.11,5.02,3.34,6.49,6.1
			c0.8,1.5,0.82,3.07,0.26,4.64c-0.22,0.61-0.56,1.2-0.42,1.84c0.54,2.44,0.44,4.87-0.3,7.36c1.62,0,2.4-0.91,3.08-1.89
			c1.56-2.28,3.76-2.79,6.32-2.39c1,0.15,1.86,0.46,2.19,1.56c0.34,1.16,0.16,2.22-0.66,3.12c-0.32,0.35-0.74,0.61-1.13,0.87
			c-7.5,5.06-14.25,11.09-21.42,16.58c-1.97,1.51-3.65,3.35-5.16,5.33c-2.01,2.66-1.8,4.19,0.89,6.26c1.2,0.93,2.48,1.75,3.74,2.6
			c2.85,1.92,5.69,3.85,8.57,5.72c1.51,0.98,1.79,0.92,3.17-0.23c1.79-1.5,3.23-3.32,4.6-5.19c4.07-5.54,7.91-11.24,11.55-17.07
			c1.75-2.81,3.89-3.78,6.85-3.21c0.54,0.1,1.09,0.27,1.58,0.53c1.01,0.55,1.15,1.19,0.48,2.16c-4.55,6.56-8.49,13.52-13.35,19.87
			c-1.37,1.78-2.78,3.5-4.46,5c-3.87,3.46-8.01,3.93-12.57,1.44c-0.42-0.23-0.84-0.47-1.24-0.73c-5.15-3.37-10.3-6.72-15.42-10.13
			c-3.98-2.65-4.46-5.99-1.43-9.7c0.7-0.86,1.55-1.61,2.41-2.32c3.51-2.91,7.05-5.77,10.56-8.68
			C258.8,437.67,259.56,437.33,259.91,436.43z M261.7,412.89c-0.89-2.34-1.56-2.94-3.73-3.34c-3.42-0.65-6.83-0.56-10.25,0.02
			c-4.46,0.76-8.64,2.3-12.45,4.71c-4.69,2.96-6.42,9.48-3.79,13.87c0.82,1.37,1.2,1.51,2.38,0.52c1.61-1.36,3.5-2.23,5.35-3.15
			c2.11-1.05,4.21-0.68,6.13,0.61c1.07,0.72,1.06,1.25-0.02,1.97c-1.33,0.88-2.75,1.63-4.07,2.52c-0.89,0.59-1.8,1.24-2.08,2.63
			c2.66,0.53,5.19,0.76,7.74,0.73c4.07-0.04,7.91-0.96,11.33-3.29c2.29-1.56,3.77-3.63,4.14-6.43c0.67-5.05-1.42-8.74-6.13-10.69
			c-1.47-0.61-2.99-1.09-4.49-1.64c-0.54-0.2-1.11-0.43-0.99-1.14c0.16-0.9,0.91-0.79,1.52-0.68c1.73,0.3,3.46,0.6,5.11,1.24
			C258.77,411.87,260.17,412.34,261.7,412.89z"/>
		<path class="st8" d="M543.2,522.73c-0.35,0.26-0.46,0.3-0.47,0.36c-2.14,10.19-9.87,14.08-18.79,16.53
			c-3.22,0.88-6.5,0.64-9.68-0.44c-1.93-0.66-2.13-0.98-1.65-2.94c0.47-1.89,0.09-3.59-0.81-5.3c-4.11-7.78-7.41-15.89-9.88-24.34
			c-0.07-0.23-0.12-0.46-0.19-0.69c-0.56-1.86-0.84-1.99-2.38-0.73c-1.46,1.2-3.09,1.97-4.94,2.26c-0.6,0.09-1.32,0.3-1.7-0.45
			c-0.3-0.59,0.03-1.08,0.35-1.55c6.14-9.04,13.13-12.67,23.89-10.25c7.98,1.8,14.61,5.85,20.12,11.83
			c0.32,0.34,0.53,0.81,1.18,0.95c0.69-0.79,0.39-1.76,0.27-2.63c-0.94-6.91,1.53-12.55,6.46-17.22c3.87-3.67,8.49-4.86,13.72-3.86
			c10.8,2.07,15.85,10.93,16.39,18.75c0.53,7.65-1.71,14.74-5.5,21.25c-2.44,4.2-6.13,7.16-11.2,7.83
			c-4.16,0.55-7.75-0.7-10.62-3.77C546.14,526.58,544.56,524.79,543.2,522.73z M570.34,509.55c-0.05-1.83,0.18-3.65-0.3-5.48
			c-1.85-7-6.32-11.48-13.11-13.74c-3.51-1.17-5.3-1.08-7.45,2.14c-0.64,0.95-1.25,1.23-2.35,0.52c-1.82-1.18-2.34-0.98-3.17,0.96
			c-0.83,1.95-0.97,4.02-0.9,6.11c0.26,7.73,2.81,14.68,7.21,20.99c1.21,1.73,2.75,3.1,4.59,4.14c5.65,3.19,11.27,1.2,13.65-4.85
			C569.88,516.88,570.42,513.27,570.34,509.55z M537.22,525.01c-0.03-4.75-1.37-8.39-4.45-12.09c-5.57-6.69-12.65-10.87-21.15-12.67
			c-1.01-0.22-2.04-0.43-3.07-0.48c-1.34-0.06-1.74,0.39-1.55,1.75c0.26,1.82,0.81,3.59,1.49,5.29c2.26,5.63,4.57,11.23,6.88,16.83
			c0.64,1.55,1.49,3,2.44,4.39c0.87,1.26,1.46,2.63,1.67,4.18c0.29,2.12,0.6,2.4,2.75,2.48c3.31,0.12,6.51-0.51,9.59-1.74
			C536.19,531.21,537.26,529.65,537.22,525.01z"/>
		<path class="st8" d="M663.19,451.6c3.57,2.63,7.39,4.6,11.31,6.41c0.87,0.4,1.77,0.75,2.6,1.21c1.96,1.09,2.64,2.66,2.18,4.84
			c-0.29,1.37-1.01,1.9-2.41,1.64c-0.7-0.13-1.37-0.43-2.03-0.7c-5.57-2.28-10.74-5.27-15.57-8.87c-1.02-0.76-2.07-1.51-3.16-2.17
			c-0.81-0.49-1.67-0.54-2.34,0.36c-0.64,0.86-0.6,1.76,0.28,2.56c0.58,0.53,1.3,0.91,1.99,1.31c4.5,2.62,8.81,5.49,12.71,8.96
			c1.77,1.58,2.58,3.4,1.77,5.76c-0.7,2.04-1.61,2.38-3.3,0.97c-5.05-4.21-10.57-7.71-16.14-11.18c-2.64-1.64-4.81-1.57-7.18,0.39
			c-1.97,1.62-4.25,2.83-6.45,4.14c-1.54,0.91-1.59,1.18-0.49,2.57c2.94,3.7,5.03,7.97,7.87,11.74c1.13,1.5,1.17,3.29,0.4,5.02
			c-0.67,1.5-1.89,1.71-3.02,0.52c-0.43-0.46-0.75-1.03-1.09-1.57c-2.5-3.9-4.99-7.81-7.47-11.72c-0.61-0.95-1.16-1.88-2.52-1.93
			c-0.97-0.03-1.29-0.85-1.31-1.72c-0.05-2.28-1.12-4.11-2.41-5.88c-1.46-2-2.87-4.04-4.24-6.1c-0.98-1.47-2.04-2.86-3.31-4.1
			c-0.98-0.95-1.43-2.08-1.29-3.45c0.23-2.19,1.1-3.2,3.33-3.31c4.09-0.2,8.12,0.32,12.08,1.42c4.39,1.21,8.77,2.43,12.79,4.65
			c0.65,0.36,1.32,0.55,2.06,0.43c1.2-0.18,1.67-0.75,1.52-1.96c-0.27-2.06-1.18-3.83-2.73-5.2c-3.05-2.7-6.23-5.26-9.01-8.26
			c-0.47-0.51-1.05-0.7-1.73-0.64c-1.92,0.16-4.23,2.05-4.74,3.9c-0.06,0.23-0.07,0.47-0.12,0.71c-0.16,0.84-0.47,1.6-1.47,1.61
			c-0.92,0.01-1.44-0.62-1.67-1.46c-0.78-2.89-0.44-5.54,1.71-7.8c0.89-0.94,1.94-1.65,3.12-2.19c6.69-3.09,13.67-4.87,21.08-4.71
			c2.01,0.04,3.98,0.35,5.91,0.86c6.91,1.8,10.85,9.31,8.43,16.02c-0.76,2.09-1.98,3.81-3.9,5
			C664.53,450.17,663.7,450.53,663.19,451.6z M644.16,435.64c-0.13,0.59,0.19,0.88,0.45,1.17c2.97,3.27,6.45,5.96,9.95,8.6
			c1.99,1.5,4.31,1.47,6.58,0.34c1.8-0.9,3.4-2.09,4.9-3.41c1.34-1.18,1.38-2.22,0.09-3.45c-2.04-1.95-4.33-3.49-7.2-4.02
			c-3.34-0.62-6.69-0.56-10.02-0.18C647.3,434.87,645.59,434.83,644.16,435.64z M626.95,454.28c1.55,3.32,3.65,6.1,5.76,8.87
			c0.46,0.59,1.01,0.71,1.65,0.25c1.95-1.37,3.94-2.68,5.85-4.11c1.06-0.79,0.95-1.26-0.29-1.77c-2.42-1-4.91-1.82-7.47-2.38
			C630.7,454.76,628.96,454.18,626.95,454.28z"/>
		<path class="st7" d="M594.73,418.26c0.51-1.03,1.41-1.67,2.36-2.24c4.7-2.8,8.81-6.33,12.57-10.26c1.73-1.81,3.79-2.76,6.3-3.06
			c4.01-0.48,7.96,0.24,11.94,0.29c3.19,0.04,5.65,1.05,7.19,4.02c0.62,1.2,1.79,2.02,2.84,2.89c1.9,1.59,1.95,1.81,0.3,3.57
			c-3.61,3.83-7.26,7.63-10.92,11.42c-1.72,1.78-3.52,3.47-5.24,5.26c-1.16,1.2-2.39,1.38-3.89,0.68c-2.83-1.33-5.55-2.83-7.94-4.86
			c-3.85-3.28-8.29-5.33-13.14-6.61C596.3,419.14,595.35,419.18,594.73,418.26z"/>
		<path class="st8" d="M667.78,410.92c4.73,0.01,9.09,0.6,13.36,1.64c2.2,0.53,4.1,0.34,5.81-1.18c0.24-0.21,0.51-0.38,0.78-0.55
			c0.92-0.58,1.5-0.17,1.88,0.7c0.13,0.29,0.17,0.61,0.23,0.93c0.33,1.88,1.55,2.85,3.3,3.38c4.59,1.39,8.99,3.27,13.31,5.35
			c0.79,0.38,1.58,0.78,2.32,1.24c2.02,1.28,2.8,3.28,2.24,5.57c-0.3,1.21-0.9,1.55-2.11,1.15c-0.3-0.1-0.58-0.28-0.86-0.42
			c-6.11-3.16-12.59-5.41-19.05-7.74c-2.23-0.81-4.09-0.44-5.71,1.17c-2.09,2.08-4.1,4.26-6.17,6.37c-0.98,1-0.16,1.54,0.49,2.11
			c3.64,3.24,7.26,6.51,10.96,9.69c1.72,1.48,2.24,3.22,1.75,5.36c-0.37,1.62-1.17,1.92-2.55,0.93c-0.45-0.33-0.84-0.73-1.25-1.11
			c-3.63-3.37-7.27-6.73-10.89-10.12c-1-0.94-1.94-1.9-3.5-1.73c-0.91,0.1-1.28-0.64-1.4-1.36c-0.26-1.54-1.24-2.55-2.32-3.52
			c-3.7-3.29-7.22-6.8-11.3-9.65c-0.93-0.65-1.64-1.48-2-2.61c-0.9-2.85,0.04-4.5,2.99-4.96
			C661.4,411.04,664.72,410.43,667.78,410.92z M662.98,417.53c3.26,2.83,6.1,5.33,8.99,7.77c0.84,0.71,1.45,0.09,1.95-0.61
			c1.17-1.62,2.47-3.13,3.87-4.56c0.45-0.47,1.21-0.76,1.24-1.7C673.82,417.79,668.75,416.91,662.98,417.53z"/>
		<path class="st8" d="M619.94,502.17c-4.35,0.14-8.12-0.99-11.59-3.18c-3.51-2.21-5.34-6.62-4.41-10.6
			c0.11-0.46,0.27-0.93,0.5-1.34c0.37-0.69,0.66-1.63,1.58-1.62c0.94,0.02,0.86,1.05,1.06,1.67c1.1,3.45,3.38,5.74,6.72,6.99
			c4.37,1.64,8.83,2.13,13.4,0.9c0.77-0.21,1.51-0.51,2.23-0.84c4.24-1.97,5.1-5.5,2.12-9.12c-3.23-3.92-7.18-7.04-11.5-9.69
			c-5.61-3.45-11.73-5.77-17.87-8.03c-1.42-0.52-2.61-0.3-3.69,0.85c-1.59,1.7-3.47,3.07-5.41,4.35c-2.06,1.37-4.24,2.57-5.8,4.58
			c-0.3,0.39-0.68,0.71-1.22,0.41c-0.4-0.22-0.43-0.63-0.45-1.04c-0.06-1.84,0.58-3.44,1.71-4.86c1.11-1.39,2.51-2.45,3.97-3.44
			c3.17-2.15,6.47-4.13,8.78-7.34c0.64-0.89,1.59-0.97,2.59-0.61c2.02,0.74,4.07,1.41,6.08,2.2c7.99,3.15,15.52,7.04,22.2,12.56
			c5.67,4.69,6.92,11.16,4.79,17.97c-1.35,4.3-4.51,6.89-8.72,8.2C624.66,501.89,622.21,502.32,619.94,502.17z"/>
		<path class="st9" d="M602.85,444.72c-0.22,1.1-0.96,1.35-1.52,1.76c-8.57,6.19-17.72,11.39-27.13,16.17
			c-1.55,0.79-2.83,0.82-4.11-0.47c-1.05-1.06-2.47-1.42-3.89-1.7c-2.74-0.54-5.46-1.13-8.24-1.51c-3.6-0.49-6.01-3.05-6.47-6.68
			c-0.41-3.26-0.35-6.53,0.05-9.79c0.08-0.7,0.26-1.43,0.57-2.06c0.56-1.14,1.37-1.19,2.23-0.22c0.21,0.24,0.36,0.52,0.54,0.79
			c0.76,1.15,1.74,1.45,3.1,1.1c1.74-0.45,1.76-0.37,2.41,1.31c0.38,0.97,0.67,1.97,1.13,2.89c0.75,1.49,1.34,1.68,2.91,1.15
			c0.08-0.03,0.15-0.05,0.23-0.08c2.67-1.01,2.67-1.01,4.22,1.18c0.87,1.23,1.51,1.39,2.83,0.67c0.42-0.23,0.83-0.5,1.17-0.82
			c1.16-1.1,2.36-1.55,3.87-0.62c0.82,0.5,1.7,0.31,2.48-0.23c0.46-0.32,0.98-0.59,1.34-1c1.46-1.64,2.94-2.58,4.96-0.76
			c0.56,0.5,1.37,0.35,2.04-0.03c0.49-0.27,1.01-0.52,1.4-0.9c1.68-1.65,3.34-2.28,5.28-0.33c0.64,0.65,1.48,0.48,2.08-0.27
			c0.25-0.31,0.49-0.63,0.74-0.94c1.09-1.4,1.11-1.44,2.54-0.22C600.56,443.87,601.54,444.51,602.85,444.72z"/>
		<path class="st10" d="M582.32,426.82c-0.2-0.25-0.45-0.47-0.58-0.75c-0.8-1.65-0.42-2.57,1.31-3.05c2.51-0.7,5.07-0.74,7.6-0.27
			c4.35,0.82,8.41,2.5,12.31,4.56c1.98,1.05,2.43,1.8,3.13,4.53c-0.57,0.58-1.17,0.15-1.77,0.05c-1.83-0.31-2.73,0.42-2.76,2.28
			c-0.01,0.63,0.12,1.27,0.18,1.91c0.08,0.87,0.19,1.75,0.23,2.63c0.02,0.53,0.17,1.2-0.46,1.47c-0.68,0.29-0.98-0.32-1.32-0.75
			c-0.45-0.56-0.83-1.18-1.32-1.71c-1.65-1.77-2.7-1.62-3.82,0.48c-0.18,0.33-0.19,0.78-0.62,0.94c-0.55-0.06-0.74-0.57-1.1-0.87
			c-1.4-1.16-2.06-1.09-3.07,0.47c-0.69,1.07-1.17,2.28-1.89,3.33c-0.74,1.09-1.21,1.03-1.95-0.03c-2.03-2.89-2.58-2.9-4.88-0.12
			c-0.31,0.37-0.59,0.76-0.93,1.09c-1.54,1.51-1.97,1.56-3.4-0.02c-0.87-0.96-1.59-0.85-2.44-0.11c-0.91,0.79-1.84,1.55-2.71,2.36
			c-0.72,0.67-1.24,0.58-1.66-0.28c-0.14-0.29-0.26-0.59-0.43-0.85c-1.07-1.7-1.86-1.9-3.55-0.94c-2.05,1.16-2.04,1.16-3.24-0.93
			c-0.52-0.9-1.06-1.79-1.65-2.64c-0.76-1.08-1.75-1.69-3.08-1.06c-1.25,0.59-2.15,0.2-2.88-0.86c-0.86-1.25-0.94-2.74-0.12-3.79
			c0.34-0.44,0.76-0.83,1.21-1.15c5.03-3.67,10.65-6.11,16.61-7.78c0.83-0.23,1.83-0.55,2.26,0.6c0.38,1.02,0.09,1.89-1,2.35
			c-0.29,0.12-0.56,0.3-0.84,0.45c-2.51,1.21-3.14,2.19-2.89,4.55c0.2,1.97,1.2,2.92,3.66,3.46c3.2,0.7,6.33,0.51,9.38-0.74
			c1.04-0.43,2.01-0.96,2.81-1.77c2.19-2.22,1.6-5.23-1.29-6.35C584.39,427.13,583.38,426.83,582.32,426.82z"/>
		<path class="st7" d="M572.34,390.37c-3.23-1.18-5.88-3.21-7.95-6.05c-1.63-2.24-2.54-4.81-3.12-7.47
			c-0.54-2.49-0.95-5.02-1.31-7.55c-0.29-2.01,0.39-2.78,2.49-2.87c1.52-0.06,3.04-0.08,4.55,0.05c6.78,0.56,13.58,0.41,20.37,0.39
			c3.77-0.01,3.84,0.08,3.11,3.73c-0.54,2.74-1.09,5.48-1.92,8.16c-1.33,4.28-3.97,7.61-7.4,10.39c-0.55,0.45-1.15,1.04-1.92,0.61
			c-0.62-0.35-0.59-1.08-0.61-1.72c-0.04-1.36,0-2.72-0.1-4.07c-0.17-2.27-1.23-3.56-2.81-3.55c-1.76,0.02-2.88,1.39-2.92,3.67
			c-0.03,1.68-0.01,3.36-0.02,5.04C572.81,389.51,572.83,389.92,572.34,390.37z"/>
		<path class="st8" d="M264.04,476.46c2.23-1.6,4.51-1.92,6.83-1.51c2.88,0.51,5.19-0.41,7.18-2.36
			c6.59-6.43,13.67-12.28,20.93-17.93c0.75-0.59,1.49-1.22,2.11-1.94c0.84-0.98,0.75-1.58-0.18-2.47c-0.76-0.73-1.75-1.1-2.65-1.62
			c-0.38-0.22-0.65-0.51-0.58-0.95c0.08-0.44,0.44-0.64,0.86-0.69c2.34-0.3,4.6-0.22,6.77,0.9c2.45,1.27,4.55,2.96,6.37,5.01
			c1.49,1.67,2.94,3.37,4.34,5.12c1,1.25,0.83,1.64-0.77,2.1c-2.76,0.8-5.15-0.05-6.94-2.09c-2.2-2.51-2.21-1.83-4.31-0.11
			c-7.61,6.23-15.23,12.43-22.19,19.4c-2.78,2.78-2.87,3.09,0.44,4.89c1.48,0.8,2.72,1.97,3.84,3.23c1.14,1.28,0.94,1.98-0.66,2.26
			c-1.67,0.29-3.38,0.36-4.89-0.58c-5.09-3.16-10.15-6.35-15.21-9.55C264.93,477.3,264.6,476.94,264.04,476.46z"/>
		<path class="st11" d="M478.18,318.49c-1.13,7.87-0.26,15.81-0.86,23.71c-0.11,1.42,0.03,3.08-1.46,3.83
			c-1.59,0.79-2.89-0.38-4.14-1.2c-1.22-0.8-2.23-1.83-3.05-3.03c-4.99-7.36-6.78-15.43-5.17-24.18c0.76-4.11,3.32-6.58,7.43-7.5
			c2.42-0.54,4.23,0.29,5.62,2.22C477.87,314.17,478.28,316.26,478.18,318.49z"/>
		<path class="st11" d="M557.06,404.92c4.79-0.2,9.57-0.43,14.36-0.58c2.71-0.08,3,0.26,3.15,2.95c0.17,3.03,0.37,6.06,0.51,9.09
			c0.09,1.97-0.1,2.27-1.97,2.58c-7.23,1.17-14.16,0.69-20.4-3.72c-2.34-1.66-4.84-3.11-7.2-4.75c-1.64-1.14-3.17-2.43-4.74-3.66
			c-0.43-0.34-1.08-0.68-0.89-1.29c0.21-0.7,0.96-0.74,1.6-0.72c1.76,0.05,3.51,0.16,5.27,0.17c3.43,0.03,6.87,0.01,10.3,0.01
			C557.06,404.98,557.06,404.95,557.06,404.92z"/>
		<path class="st11" d="M607.22,403.89c-0.96,1.64-2.02,2.6-3,3.61c-3.89,4-8.34,7.14-13.61,9.13c-2.9,1.09-5.84,0.62-8.77,0.66
			c-0.69,0.01-0.95-0.51-0.94-1.14c0.04-3.44-0.2-6.86-0.5-10.28c-0.13-1.54,0.47-2.15,1.98-1.97c6.14,0.72,12.29,0.13,18.43,0.29
			C602.82,404.23,604.8,404.1,607.22,403.89z"/>
		<path class="st6" d="M578.97,432.61c-0.84-0.78-0.92-1.81-0.96-2.86c-0.65-14.61-2.04-29.19-2.52-43.81
			c-0.04-1.28-0.2-2.55-0.26-3.82c-0.02-0.43,0.22-0.78,0.69-0.81c0.5-0.03,0.68,0.34,0.73,0.76c0.1,0.87,0.22,1.75,0.27,2.62
			c0.82,12.76,1.57,25.53,2.09,38.31c0.11,2.8,0.38,5.58,1.25,8.27c0.18,0.56,0.27,1.11,1.05,0.98
			C580.55,432.6,579.77,432.67,578.97,432.61z"/>
		<path class="st11" d="M578.97,432.61c0.8,0.06,1.58-0.02,2.32-0.35c0.61-0.83,0.64-1.74,0.36-2.68c-0.19-0.63-0.3-1.22,0.16-1.77
			c1.32-0.09,2.54,0.23,3.62,0.97c1.67,1.14,1.76,2.87,0.27,4.21c-2.67,2.4-9,3.32-12.25,1.78c-1.6-0.76-2.08-2.16-1.32-3.77
			c0.46-0.98,1.26-1.6,2.14-2.15c1.11-0.26,1.83-0.04,1.96,1.3c0.06,0.69,0.36,1.4,0.71,2.01
			C577.41,432.96,578.06,433.49,578.97,432.61z"/>
		<path class="st12" d="M574.28,428.85c-0.87,0.56-1.68,1.18-2.14,2.15c-0.76,1.61-0.28,3.01,1.32,3.77
			c3.25,1.54,9.57,0.62,12.25-1.78c1.49-1.34,1.4-3.07-0.27-4.21c-1.08-0.73-2.31-1.06-3.62-0.97c0.17-0.33,0.34-0.66,0.52-0.99
			c1.05,0.01,2.06,0.31,3.02,0.68c2.89,1.12,3.48,4.13,1.29,6.35c-0.8,0.81-1.77,1.34-2.81,1.77c-3.05,1.25-6.18,1.43-9.38,0.74
			c-2.46-0.53-3.46-1.49-3.66-3.46c-0.24-2.36,0.38-3.34,2.89-4.55C573.87,428.51,574.07,428.68,574.28,428.85z"/>
		<path class="st9" d="M604.85,435.81c0.88-0.43,1.53-0.34,2.14-0.25c2.29,0.3,3.37,2.73,2.12,4.68c-0.85,1.32-2.14,2.19-4.11,2.74
			C605.34,440.57,605.69,438.2,604.85,435.81z"/>
		<path class="st11" d="M645.02,404.59c0.06,1.33-1.34,3.06-2.35,3.16c-1.1,0.1-2.3-1.16-2.22-2.57c0.1-1.68,1.6-1.11,2.54-1.31
			C643.8,403.71,644.77,403.6,645.02,404.59z"/>
		<path class="st12" d="M641.77,311.74c1.54-0.22,2.87,0.53,4.28,0.93c-0.42,0.78-1.13,0.47-1.7,0.37
			c-1.33-0.23-2.65-0.58-3.97-0.88C640.84,312.01,641.41,312.22,641.77,311.74z"/>
		<path class="st13" d="M628.43,364.95c-4.83-0.06-8.89-0.68-12.64-2.7c-2.58-1.39-4.05-3.48-4.46-6.39
			c-0.2-1.46,0.27-2.49,1.56-3.16c5.22-2.69,10.72-4.02,16.61-3.39c2.22,0.24,4.42,0.62,6.56,1.25c2.25,0.66,4.29,1.74,5.99,3.36
			c2.31,2.2,2.28,4.91-0.08,7.09c-2.05,1.91-4.57,2.93-7.28,3.33C632.41,364.69,630.11,365.09,628.43,364.95z"/>
		<path class="st13" d="M517.74,359.25c-4.29,0.15-8.19-0.88-11.86-2.8c-2.87-1.5-4.57-3.86-5.29-7.03
			c-0.38-1.67,0.14-2.8,1.48-3.68c1.07-0.71,2.22-1.28,3.46-1.61c6.34-1.64,12.63-1.75,18.8,0.76c1.33,0.54,2.58,1.27,3.75,2.11
			c2.48,1.77,3.33,4.39,3.77,7.22c0.14,0.92-0.35,1.51-1.08,1.96c-1.44,0.88-3,1.52-4.63,1.93
			C523.36,358.84,520.54,359.39,517.74,359.25z"/>
		<path class="st14" d="M508.49,317.9c4.2,0.25,8.65,1.46,12.96,3.22c5.69,2.32,11.17,5.1,16.73,7.72c2.31,1.09,4.65,2.11,6.98,3.15
			c0.8,0.36,1.59,0.73,2.24,1.35c0.61,0.58,1.15,1.17,0.63,2.07c-0.54,0.92-1.31,1.39-2.4,1.02c-0.23-0.07-0.45-0.17-0.67-0.27
			c-8.26-3.93-17.04-6.29-25.82-8.66c-3.23-0.87-6.42-1.9-9.63-2.87c-1.38-0.42-2.68-1.02-3.93-1.75c-0.88-0.52-1.43-1.18-1.45-2.29
			c-0.04-1.96,0.48-2.58,2.45-2.7C507.06,317.88,507.54,317.9,508.49,317.9z"/>
		<path class="st14" d="M598.85,335.64c0.32-1.82,1.65-2.41,2.94-3.02c6.09-2.89,12.49-4.77,19.09-6.04
			c6.66-1.29,13.35-2.3,20.09-3.08c2.21-0.26,2.67,0.11,2.84,2.36c0.03,0.4,0.05,0.8,0.04,1.2c-0.07,2-0.55,2.58-2.48,2.84
			c-3.79,0.52-7.6,0.94-11.38,1.48c-8.76,1.25-17.51,2.55-26.27,3.82C602.17,335.42,600.68,336.26,598.85,335.64z"/>
		<path class="st13" d="M582.34,298.86c-3.28,0.27-6.3-0.83-9.08-2.75c-8.75-6.04-5.72-17.3,0.63-21.27
			c6.33-3.95,14.82-2.97,20.07,2.35c3.36,3.4,4.21,8.73,2.1,13.37C593.43,296.35,587.35,299.76,582.34,298.86z"/>
		<path class="st15" d="M331.86,477.31c-0.24,4.29-1.63,8.09-4.74,11.18c-4.43,4.4-9.93,6.88-15.69,8.9
			c-1.96,0.69-3.96,1.22-6.03,1.51c-6.54,0.92-10.66-3.41-9.4-9.94c0.32-1.67,1-3.19,2.02-4.56c4.13-5.57,9.01-10.36,14.77-14.23
			c2.76-1.85,5.84-2.92,9-3.79c1.31-0.36,1.93,0.07,1.66,1.4c-0.31,1.54,0.51,1.87,1.6,2.03c0.86,0.13,1.75,0.12,2.62,0.07
			c1.57-0.08,2.55,0.65,3.15,2.06C331.56,473.65,331.94,475.43,331.86,477.31z"/>
		<path class="st15" d="M376.29,498.33c0.55,1.58,0.78,1.77,2.09,1.44c1.08-0.27,2.11-0.74,3.19-1.01
			c5.44-1.35,9.95,0.42,13.62,4.39c2.63,2.85,2.88,7.77,0.63,10.93c-2.95,4.14-6.91,7.03-11.7,8.78c-0.21,0.08-0.46,0.01-0.8,0.01
			c-0.04-2.45,0.3-4.75,1.69-6.84c0.89-1.34,0.6-1.78-1.01-1.85c-2.82-0.12-5.41,1.58-6.52,4.38c-0.44,1.11-0.67,2.29-0.98,3.45
			c-0.38,1.43-0.54,1.54-1.95,1.22c-5.35-1.22-9.16-7.17-7.76-12.51c1.09-4.15,3.21-7.81,6.31-10.83c0.68-0.66,1.41-1.3,2.38-1.56
			C375.74,498.32,376.01,498.33,376.29,498.33z"/>
		<path class="st12" d="M376.29,498.33c-0.27,0-0.55,0-0.82,0c2.44-2.7,5.36-4.22,9.11-3.8c0.64,0.07,1.28,0.12,1.87,0.7
			C382.95,496.05,379.52,496.87,376.29,498.33z"/>
		<path class="st15" d="M261.7,412.89c-1.53-0.55-2.93-1.02-4.31-1.56c-1.65-0.65-3.38-0.95-5.11-1.24
			c-0.62-0.11-1.36-0.21-1.52,0.68c-0.13,0.71,0.45,0.95,0.99,1.14c1.5,0.55,3.02,1.03,4.49,1.64c4.72,1.95,6.8,5.63,6.13,10.69
			c-0.37,2.8-1.85,4.87-4.14,6.43c-3.42,2.33-7.26,3.25-11.33,3.29c-2.54,0.03-5.08-0.21-7.74-0.73c0.28-1.39,1.19-2.04,2.08-2.63
			c1.33-0.89,2.74-1.64,4.07-2.52c1.08-0.71,1.09-1.25,0.02-1.97c-1.92-1.29-4.02-1.66-6.13-0.61c-1.85,0.92-3.74,1.79-5.35,3.15
			c-1.18,0.99-1.56,0.86-2.38-0.52c-2.63-4.39-0.91-10.91,3.79-13.87c3.82-2.41,7.99-3.95,12.45-4.71
			c3.42-0.58,6.84-0.67,10.25-0.02C260.13,409.95,260.81,410.55,261.7,412.89z"/>
		<path class="st15" d="M570.34,509.55c0.09,3.72-0.46,7.33-1.82,10.79c-2.38,6.05-8,8.04-13.65,4.85
			c-1.84-1.04-3.39-2.41-4.59-4.14c-4.4-6.31-6.95-13.26-7.21-20.99c-0.07-2.09,0.06-4.16,0.9-6.11c0.83-1.94,1.34-2.14,3.17-0.96
			c1.1,0.71,1.71,0.43,2.35-0.52c2.15-3.22,3.94-3.31,7.45-2.14c6.79,2.25,11.26,6.74,13.11,13.74
			C570.52,505.9,570.29,507.72,570.34,509.55z"/>
		<path class="st15" d="M537.22,525.01c0.03,4.65-1.04,6.2-5.38,7.94c-3.08,1.23-6.27,1.86-9.59,1.74
			c-2.15-0.08-2.46-0.35-2.75-2.48c-0.21-1.55-0.8-2.92-1.67-4.18c-0.96-1.39-1.8-2.83-2.44-4.39c-2.31-5.6-4.62-11.21-6.88-16.83
			c-0.68-1.7-1.23-3.47-1.49-5.29c-0.2-1.36,0.21-1.81,1.55-1.75c1.03,0.05,2.05,0.27,3.07,0.48c8.5,1.8,15.58,5.98,21.15,12.67
			C535.85,516.61,537.19,520.25,537.22,525.01z"/>
		<path class="st14" d="M644.16,435.64c1.43-0.82,3.14-0.77,4.75-0.96c3.33-0.38,6.68-0.44,10.02,0.18c2.87,0.53,5.16,2.07,7.2,4.02
			c1.29,1.23,1.25,2.27-0.09,3.45c-1.5,1.32-3.09,2.52-4.9,3.41c-2.27,1.13-4.59,1.16-6.58-0.34c-3.5-2.64-6.99-5.33-9.95-8.6
			C644.35,436.52,644.03,436.24,644.16,435.64z"/>
		<path class="st14" d="M626.95,454.28c2.02-0.09,3.75,0.48,5.5,0.87c2.56,0.56,5.05,1.38,7.47,2.38c1.24,0.51,1.35,0.98,0.29,1.77
			c-1.91,1.43-3.9,2.74-5.85,4.11c-0.65,0.46-1.2,0.34-1.65-0.25C630.59,460.38,628.49,457.6,626.95,454.28z"/>
		<path class="st12" d="M662.98,417.53c5.77-0.62,10.84,0.26,16.06,0.9c-0.04,0.94-0.79,1.23-1.24,1.7c-1.4,1.43-2.7,2.94-3.87,4.56
			c-0.5,0.7-1.11,1.32-1.95,0.61C669.08,422.86,666.24,420.36,662.98,417.53z"/>
	</g>
</g>
</svg>
